<svg width="539" height="704" viewBox="0 0 539 704" fill="none" xmlns="http://www.w3.org/2000/svg">
<path d="M396.641 319.167H328.778C328.715 319.167 328.653 319.149 328.597 319.115C328.54 319.08 328.491 319.03 328.452 318.967C328.413 318.905 328.386 318.832 328.373 318.755C328.359 318.677 328.359 318.597 328.374 318.52C328.414 318.302 329.419 313.2 333.614 313.2C333.614 313.2 333.613 313.2 333.614 313.2C334.014 313.2 334.436 313.248 334.867 313.344C335.202 313.419 335.528 313.456 335.837 313.456C337.626 313.456 338.799 312.186 340.042 310.842C341.422 309.347 342.987 307.654 345.563 307.654C348.412 307.654 350.094 308.732 351.578 309.684C352.797 310.466 353.85 311.141 355.37 311.141C356.651 311.141 357.649 309.551 358.804 307.709C360.535 304.95 362.69 301.517 366.92 301.517C371.085 301.517 372.537 304.135 373.704 306.239C374.542 307.751 375.204 308.945 376.667 308.945C378.517 308.945 379.266 308.193 380.06 307.396C380.882 306.57 381.733 305.716 383.646 305.716C385.449 305.716 387.122 308.213 389.059 311.105C391.26 314.391 393.755 318.115 396.641 318.115C396.749 318.118 396.852 318.175 396.928 318.273C397.004 318.372 397.047 318.504 397.047 318.641C397.047 318.779 397.004 318.911 396.928 319.009C396.852 319.108 396.749 319.164 396.641 319.167ZM329.347 318.115H393.701C391.729 316.716 390.006 314.144 388.427 311.786C386.698 309.206 385.065 306.768 383.646 306.768C382.022 306.768 381.351 307.441 380.575 308.22C379.746 309.053 378.806 309.997 376.667 309.997C374.773 309.997 373.924 308.466 373.025 306.844C371.914 304.84 370.654 302.569 366.92 302.569C363.09 302.569 361.158 305.647 359.454 308.364C358.165 310.418 357.051 312.192 355.37 312.192C353.652 312.192 352.463 311.43 351.203 310.622C349.734 309.68 348.214 308.705 345.563 308.705C343.292 308.705 341.975 310.131 340.58 311.641C339.278 313.051 337.932 314.508 335.837 314.508C335.48 314.508 335.105 314.465 334.723 314.38C334.357 314.297 333.986 314.254 333.614 314.251C330.859 314.252 329.73 316.864 329.347 318.115ZM79.8047 236.517C79.8047 236.517 81.0029 228.856 86.4453 230.287C91.89 231.718 92.7536 222.879 98.3298 222.879C103.908 222.879 105.235 227.426 109.151 227.426C113.068 227.426 114.264 214.882 121.899 214.882C129.533 214.882 128.339 224.562 132.653 224.562C136.97 224.562 136.373 220.353 140.355 220.353C144.339 220.353 148.563 236.517 154.697 236.517L79.8047 236.517ZM336.648 136.063C336.648 136.063 337.88 129.387 343.485 130.633C349.091 131.879 349.981 124.176 355.722 124.176C361.465 124.176 362.83 128.137 366.864 128.137C370.898 128.137 372.128 117.204 379.99 117.204C387.851 117.204 386.62 125.644 391.064 125.644C395.506 125.644 394.893 121.975 398.995 121.975C403.096 121.975 407.444 136.063 413.758 136.063H336.648V136.063ZM446.806 343.262C446.806 343.262 447.461 339.712 450.438 340.375C453.417 341.039 453.889 336.944 456.94 336.944C459.99 336.944 460.717 339.051 462.86 339.051C465.003 339.051 465.658 333.242 469.833 333.242C474.01 333.242 473.357 337.723 475.717 337.723C478.077 337.723 477.751 335.775 479.93 335.775C482.109 335.775 484.421 343.262 487.775 343.262H446.806ZM288.944 118.471C282.731 118.471 277.107 121.665 273.036 126.828C268.962 131.991 266.445 139.122 266.445 146.999C266.445 154.877 268.962 162.008 273.036 167.171C277.107 172.336 282.731 175.528 288.944 175.528C295.156 175.528 300.78 172.336 304.852 167.171C308.923 162.008 311.442 154.877 311.442 146.999C311.442 139.121 308.923 131.991 304.852 126.828C300.78 121.665 295.156 118.471 288.944 118.471ZM278.972 134.355C281.523 131.118 285.049 129.116 288.944 129.116C292.838 129.116 296.364 131.118 298.915 134.355C301.469 137.59 303.047 142.061 303.047 146.999C303.047 151.937 301.469 156.409 298.915 159.644C296.364 162.881 292.838 164.882 288.944 164.882C285.049 164.882 281.523 162.881 278.972 159.644C276.419 156.409 274.84 151.937 274.84 146.999C274.841 142.061 276.419 137.59 278.972 134.355Z" fill="#7DA3FB"/>
<path d="M288.939 110.908H293.564L297.472 124.918H280.406L284.315 110.908H288.939ZM288.939 183.091H293.564L297.472 169.084H280.406L284.315 183.091H288.939Z" fill="#7DA3FB"/>
<path d="M309.068 121.481L312.34 125.627L307.291 139.036L295.224 123.734L305.799 117.333L309.068 121.481ZM268.816 172.518L272.088 176.666L282.663 170.265L270.596 154.963L265.547 168.372L268.816 172.518ZM268.816 121.481L272.088 117.333L282.663 123.734L270.596 139.036L265.547 125.627L268.816 121.481ZM309.068 172.518L312.34 168.372L307.291 154.963L295.224 170.265L305.799 176.666L309.068 172.518Z" fill="#7DA3FB"/>
<path d="M260.477 146.999V141.135L271.523 136.179V157.819L260.477 152.864V146.999ZM317.401 146.999V141.135L306.354 136.179V157.819L317.401 152.864V146.999Z" fill="#7DA3FB"/>
<path d="M107.184 171.571C108.37 170.067 110.294 170.067 111.482 171.571C112.668 173.078 112.668 175.518 111.482 177.022C110.294 178.528 108.37 178.528 107.184 177.022C105.996 175.518 105.996 173.078 107.184 171.571ZM94 154.854C98.2327 149.487 103.783 146.803 109.333 146.803C114.881 146.803 120.431 149.487 124.666 154.854L121.914 158.344C118.439 153.938 113.886 151.736 109.333 151.736C104.78 151.736 100.225 153.938 96.7502 158.344L94 154.854ZM103.056 166.338C104.79 164.14 107.06 163.043 109.333 163.043C111.604 163.043 113.876 164.14 115.609 166.338L112.857 169.828C111.884 168.594 110.609 167.976 109.333 167.976C108.057 167.976 106.782 168.594 105.806 169.828L103.056 166.338ZM98.5273 160.598C101.51 156.815 105.423 154.923 109.333 154.923C113.243 154.923 117.154 156.815 120.137 160.598L117.386 164.085C115.162 161.266 112.246 159.856 109.333 159.856C106.418 159.856 103.502 161.266 101.279 164.085L98.5273 160.598Z" fill="#F72E70"/>
<path d="M243.935 115.15C241.36 115.15 239.027 116.475 237.34 118.614C235.652 120.754 234.609 123.709 234.609 126.974C234.609 130.239 235.652 133.194 237.34 135.334C239.027 137.474 241.359 138.798 243.935 138.798C246.508 138.798 248.84 137.474 250.527 135.334C252.215 133.194 253.258 130.239 253.258 126.974C253.258 123.709 252.215 120.754 250.527 118.614C248.84 116.475 246.508 115.15 243.935 115.15ZM239.801 121.733C240.343 121.044 240.988 120.498 241.697 120.125C242.406 119.753 243.167 119.562 243.935 119.563C245.548 119.563 247.009 120.393 248.066 121.733C248.61 122.421 249.041 123.237 249.335 124.137C249.629 125.036 249.78 126.001 249.779 126.974C249.779 129.021 249.124 130.873 248.066 132.215C247.009 133.556 245.549 134.386 243.935 134.386C242.319 134.386 240.858 133.556 239.801 132.215C238.743 130.873 238.088 129.021 238.088 126.974C238.088 124.928 238.743 123.073 239.801 121.733Z" fill="#F2889E"/>
<path d="M243.937 112.016H245.853L247.473 117.822H240.398L242.018 112.016H243.937ZM243.937 141.93H245.853L247.473 136.126H240.398L242.018 141.93H243.937Z" fill="#F2889E"/>
<path d="M252.272 116.396L253.627 118.117L251.535 123.674L246.533 117.333L250.917 114.678L252.272 116.396ZM235.59 137.55L236.945 139.268L241.327 136.616L236.326 130.275L234.234 135.831L235.59 137.55ZM235.59 116.396L236.945 114.678L241.327 117.333L236.326 123.674L234.234 118.117L235.59 116.396ZM252.272 137.55L253.627 135.831L251.535 130.275L246.533 136.616L250.917 139.268L252.272 137.55Z" fill="#F2889E"/>
<path d="M232.141 126.974V124.544L236.72 122.49V131.458L232.141 129.404V126.974ZM255.732 126.974V124.544L251.153 122.49V131.458L255.732 129.404V126.974Z" fill="#F2889E"/>
<path d="M101.696 289.226C101.586 289.226 101.481 289.17 101.403 289.072C101.325 288.973 101.281 288.839 101.281 288.7V288.143C101.285 288.006 101.33 287.876 101.407 287.781C101.485 287.686 101.588 287.632 101.696 287.632C101.804 287.632 101.908 287.686 101.985 287.781C102.063 287.876 102.108 288.006 102.111 288.143V288.7C102.111 288.839 102.067 288.973 101.99 289.072C101.912 289.17 101.806 289.226 101.696 289.226ZM101.696 285.505C101.586 285.505 101.481 285.45 101.403 285.351C101.325 285.253 101.281 285.119 101.281 284.979V282.874C101.285 282.737 101.33 282.607 101.407 282.512C101.485 282.417 101.588 282.364 101.696 282.364C101.804 282.364 101.908 282.417 101.985 282.512C102.063 282.607 102.108 282.737 102.111 282.874V284.979C102.111 285.119 102.067 285.253 101.99 285.351C101.912 285.45 101.806 285.505 101.696 285.505ZM101.696 280.24C101.586 280.24 101.481 280.185 101.403 280.086C101.325 279.987 101.281 279.854 101.281 279.714V277.609C101.285 277.472 101.33 277.343 101.407 277.248C101.485 277.152 101.588 277.099 101.696 277.099C101.804 277.099 101.908 277.152 101.985 277.248C102.063 277.343 102.108 277.472 102.111 277.609V279.714C102.111 279.854 102.067 279.987 101.99 280.086C101.912 280.185 101.806 280.24 101.696 280.24ZM101.696 274.977C101.586 274.977 101.481 274.921 101.403 274.823C101.325 274.724 101.281 274.59 101.281 274.451V272.346C101.285 272.209 101.33 272.079 101.407 271.984C101.485 271.889 101.588 271.836 101.696 271.836C101.804 271.836 101.908 271.889 101.985 271.984C102.063 272.079 102.108 272.209 102.111 272.346V274.451C102.111 274.59 102.067 274.724 101.99 274.823C101.912 274.921 101.806 274.977 101.696 274.977ZM101.696 269.714C101.586 269.714 101.481 269.659 101.403 269.56C101.325 269.462 101.281 269.328 101.281 269.188V267.083C101.285 266.947 101.33 266.817 101.407 266.722C101.485 266.627 101.588 266.573 101.696 266.573C101.804 266.573 101.908 266.627 101.985 266.722C102.063 266.817 102.108 266.947 102.111 267.083V269.188C102.111 269.328 102.067 269.462 101.99 269.56C101.912 269.659 101.806 269.714 101.696 269.714ZM101.696 264.45C101.586 264.45 101.481 264.395 101.403 264.296C101.325 264.197 101.281 264.064 101.281 263.924V262.992C101.281 262.588 101.294 262.18 101.319 261.781C101.322 261.712 101.337 261.644 101.361 261.581C101.386 261.519 101.42 261.463 101.461 261.418C101.503 261.372 101.551 261.338 101.603 261.316C101.655 261.294 101.71 261.286 101.765 261.291C101.82 261.297 101.873 261.316 101.922 261.347C101.971 261.379 102.014 261.423 102.05 261.476C102.085 261.529 102.112 261.591 102.128 261.657C102.145 261.724 102.151 261.794 102.146 261.863C102.123 262.239 102.111 262.615 102.111 262.992V263.924C102.111 264.064 102.067 264.197 101.99 264.296C101.912 264.395 101.806 264.45 101.696 264.45ZM102.186 259.255C102.122 259.255 102.058 259.236 102 259.199C101.942 259.162 101.892 259.109 101.854 259.043C101.815 258.977 101.789 258.901 101.778 258.821C101.766 258.74 101.77 258.657 101.789 258.578C101.952 257.884 102.152 257.204 102.388 256.544C102.435 256.419 102.518 256.322 102.621 256.274C102.723 256.226 102.836 256.232 102.936 256.289C103.035 256.346 103.112 256.451 103.151 256.58C103.191 256.709 103.188 256.852 103.144 256.979C102.923 257.595 102.736 258.23 102.584 258.878C102.558 258.987 102.506 259.082 102.434 259.15C102.363 259.218 102.276 259.255 102.186 259.255ZM104.011 254.564C103.934 254.563 103.859 254.537 103.794 254.486C103.729 254.436 103.676 254.364 103.642 254.277C103.607 254.191 103.591 254.095 103.597 253.998C103.603 253.902 103.629 253.809 103.674 253.731C104.006 253.144 104.367 252.584 104.754 252.054C104.83 251.955 104.933 251.898 105.041 251.894C105.149 251.891 105.255 251.941 105.334 252.034C105.414 252.128 105.461 252.257 105.467 252.394C105.472 252.531 105.435 252.666 105.363 252.769C104.999 253.266 104.66 253.793 104.348 254.344C104.31 254.412 104.259 254.467 104.2 254.506C104.142 254.544 104.077 254.564 104.011 254.564ZM106.907 250.833C106.82 250.833 106.735 250.798 106.664 250.733C106.593 250.669 106.54 250.578 106.513 250.473C106.485 250.368 106.484 250.254 106.511 250.149C106.537 250.043 106.589 249.951 106.659 249.885C107.115 249.453 107.592 249.057 108.086 248.699C108.182 248.636 108.293 248.621 108.396 248.659C108.5 248.698 108.587 248.785 108.641 248.904C108.694 249.023 108.709 249.163 108.682 249.295C108.656 249.428 108.589 249.542 108.498 249.613C108.032 249.95 107.584 250.322 107.154 250.728C107.08 250.799 106.993 250.833 106.907 250.833ZM110.556 248.387C110.458 248.387 110.363 248.343 110.288 248.262C110.213 248.182 110.163 248.07 110.147 247.947C110.131 247.824 110.15 247.698 110.2 247.591C110.251 247.484 110.33 247.403 110.423 247.363C110.964 247.13 111.516 246.944 112.077 246.806C112.131 246.793 112.186 246.793 112.239 246.807C112.293 246.821 112.343 246.848 112.389 246.887C112.434 246.925 112.472 246.975 112.502 247.033C112.532 247.091 112.553 247.155 112.563 247.223C112.574 247.291 112.573 247.361 112.562 247.428C112.551 247.496 112.53 247.56 112.499 247.618C112.469 247.675 112.43 247.724 112.384 247.762C112.339 247.8 112.288 247.826 112.234 247.839C111.711 247.968 111.194 248.141 110.689 248.359C110.646 248.378 110.601 248.387 110.556 248.387ZM124.581 247.591H122.922C122.814 247.587 122.712 247.529 122.637 247.431C122.562 247.333 122.52 247.202 122.52 247.065C122.52 246.928 122.562 246.797 122.637 246.698C122.712 246.6 122.814 246.543 122.922 246.539H124.581C124.689 246.543 124.791 246.6 124.866 246.698C124.941 246.797 124.983 246.928 124.983 247.065C124.983 247.202 124.941 247.333 124.866 247.431C124.791 247.529 124.689 247.587 124.581 247.591ZM120.434 247.591H118.775C118.668 247.587 118.565 247.529 118.49 247.431C118.415 247.333 118.373 247.202 118.373 247.065C118.373 246.928 118.415 246.797 118.49 246.698C118.565 246.6 118.668 246.543 118.775 246.539H120.434C120.541 246.543 120.644 246.6 120.719 246.698C120.794 246.797 120.836 246.928 120.836 247.065C120.836 247.202 120.794 247.333 120.719 247.431C120.644 247.529 120.541 247.587 120.434 247.591ZM116.287 247.591H114.629C114.521 247.587 114.419 247.529 114.344 247.431C114.269 247.333 114.227 247.202 114.227 247.065C114.227 246.928 114.269 246.797 114.344 246.698C114.419 246.6 114.521 246.543 114.629 246.539H116.287C116.395 246.543 116.497 246.6 116.572 246.698C116.648 246.797 116.69 246.928 116.69 247.065C116.69 247.202 116.648 247.333 116.572 247.431C116.497 247.529 116.395 247.587 116.287 247.591ZM360.428 194.285H358.77C358.663 194.281 358.56 194.224 358.485 194.126C358.41 194.027 358.368 193.896 358.368 193.759C358.368 193.623 358.41 193.491 358.485 193.393C358.56 193.295 358.663 193.237 358.77 193.233H360.428C360.536 193.237 360.638 193.295 360.713 193.393C360.788 193.491 360.83 193.623 360.83 193.759C360.83 193.896 360.788 194.027 360.713 194.126C360.638 194.224 360.536 194.281 360.428 194.285ZM356.283 194.285H354.625C354.517 194.281 354.415 194.224 354.34 194.126C354.265 194.027 354.223 193.896 354.223 193.759C354.223 193.623 354.265 193.491 354.34 193.393C354.415 193.295 354.517 193.237 354.625 193.233H356.283C356.391 193.237 356.493 193.295 356.568 193.393C356.643 193.491 356.685 193.623 356.685 193.759C356.685 193.896 356.643 194.027 356.568 194.126C356.493 194.224 356.391 194.281 356.283 194.285ZM352.138 194.285H350.48C350.372 194.281 350.27 194.224 350.195 194.126C350.12 194.027 350.078 193.896 350.078 193.759C350.078 193.623 350.12 193.491 350.195 193.393C350.27 193.295 350.372 193.237 350.48 193.233H352.138C352.246 193.237 352.348 193.295 352.423 193.393C352.498 193.491 352.54 193.623 352.54 193.759C352.54 193.896 352.498 194.027 352.423 194.126C352.348 194.224 352.246 194.281 352.138 194.285ZM347.992 194.285H346.335C346.227 194.281 346.125 194.224 346.05 194.126C345.975 194.027 345.933 193.896 345.933 193.759C345.933 193.623 345.975 193.491 346.05 193.393C346.125 193.295 346.227 193.237 346.335 193.233H347.992C348.1 193.237 348.203 193.295 348.278 193.393C348.353 193.491 348.395 193.623 348.395 193.759C348.395 193.896 348.353 194.027 348.278 194.126C348.203 194.224 348.1 194.281 347.992 194.285ZM343.847 194.285H342.19C342.082 194.281 341.98 194.224 341.904 194.126C341.829 194.027 341.787 193.896 341.787 193.759C341.787 193.623 341.829 193.491 341.904 193.393C341.98 193.295 342.082 193.237 342.19 193.233H343.847C343.955 193.237 344.057 193.295 344.133 193.393C344.208 193.491 344.25 193.623 344.25 193.759C344.25 193.896 344.208 194.027 344.133 194.126C344.057 194.224 343.955 194.281 343.847 194.285ZM339.702 194.285H338.044C337.937 194.281 337.834 194.224 337.759 194.126C337.684 194.027 337.642 193.896 337.642 193.759C337.642 193.623 337.684 193.491 337.759 193.393C337.834 193.295 337.937 193.237 338.044 193.233H339.702C339.81 193.237 339.912 193.295 339.987 193.393C340.062 193.491 340.104 193.623 340.104 193.759C340.104 193.896 340.062 194.027 339.987 194.126C339.912 194.224 339.81 194.281 339.702 194.285ZM335.557 194.285H333.899C333.791 194.281 333.689 194.224 333.614 194.126C333.539 194.027 333.497 193.896 333.497 193.759C333.497 193.623 333.539 193.491 333.614 193.393C333.689 193.295 333.791 193.237 333.899 193.233H335.557C335.665 193.237 335.767 193.295 335.842 193.393C335.917 193.491 335.959 193.623 335.959 193.759C335.959 193.896 335.917 194.027 335.842 194.126C335.767 194.224 335.665 194.281 335.557 194.285ZM331.412 194.285H329.754C329.646 194.281 329.544 194.224 329.469 194.126C329.394 194.027 329.352 193.896 329.352 193.759C329.352 193.623 329.394 193.491 329.469 193.393C329.544 193.295 329.646 193.237 329.754 193.233H331.412C331.519 193.237 331.622 193.295 331.697 193.393C331.772 193.491 331.814 193.623 331.814 193.759C331.814 193.896 331.772 194.027 331.697 194.126C331.622 194.224 331.519 194.281 331.412 194.285ZM327.266 194.285H325.609C325.501 194.281 325.399 194.224 325.324 194.126C325.249 194.027 325.207 193.896 325.207 193.759C325.207 193.623 325.249 193.491 325.324 193.393C325.399 193.295 325.501 193.237 325.609 193.233H327.266C327.374 193.237 327.477 193.295 327.552 193.393C327.627 193.491 327.669 193.623 327.669 193.759C327.669 193.896 327.627 194.027 327.552 194.126C327.477 194.224 327.374 194.281 327.266 194.285ZM323.121 194.285H321.464C321.356 194.281 321.254 194.224 321.179 194.126C321.104 194.027 321.062 193.896 321.062 193.759C321.062 193.623 321.104 193.491 321.179 193.393C321.254 193.295 321.356 193.237 321.464 193.233H323.121C323.229 193.237 323.331 193.295 323.406 193.393C323.482 193.491 323.524 193.623 323.524 193.759C323.524 193.896 323.482 194.027 323.406 194.126C323.331 194.224 323.229 194.281 323.121 194.285ZM318.976 194.285H317.319C317.211 194.281 317.109 194.224 317.033 194.126C316.958 194.027 316.916 193.896 316.916 193.759C316.916 193.623 316.958 193.491 317.033 193.393C317.109 193.295 317.211 193.237 317.319 193.233H318.976C319.084 193.237 319.186 193.295 319.262 193.393C319.337 193.491 319.379 193.623 319.379 193.759C319.379 193.896 319.337 194.027 319.262 194.126C319.186 194.224 319.084 194.281 318.976 194.285ZM314.831 194.285H313.173C313.066 194.281 312.963 194.224 312.888 194.126C312.813 194.027 312.771 193.896 312.771 193.759C312.771 193.623 312.813 193.491 312.888 193.393C312.963 193.295 313.066 193.237 313.173 193.233H314.831C314.939 193.237 315.041 193.295 315.116 193.393C315.191 193.491 315.233 193.623 315.233 193.759C315.233 193.896 315.191 194.027 315.116 194.126C315.041 194.224 314.939 194.281 314.831 194.285ZM310.686 194.285H309.028C308.92 194.281 308.818 194.224 308.743 194.126C308.668 194.027 308.626 193.896 308.626 193.759C308.626 193.623 308.668 193.491 308.743 193.393C308.818 193.295 308.92 193.237 309.028 193.233H310.686C310.794 193.237 310.896 193.295 310.971 193.393C311.046 193.491 311.088 193.623 311.088 193.759C311.088 193.896 311.046 194.027 310.971 194.126C310.896 194.224 310.794 194.281 310.686 194.285ZM306.541 194.285H304.883C304.775 194.281 304.673 194.224 304.598 194.126C304.523 194.027 304.481 193.896 304.481 193.759C304.481 193.623 304.523 193.491 304.598 193.393C304.673 193.295 304.775 193.237 304.883 193.233H306.541C306.649 193.237 306.751 193.295 306.826 193.393C306.901 193.491 306.943 193.623 306.943 193.759C306.943 193.896 306.901 194.027 306.826 194.126C306.751 194.224 306.649 194.281 306.541 194.285ZM302.396 194.285H300.738C300.63 194.281 300.528 194.224 300.453 194.126C300.378 194.027 300.336 193.896 300.336 193.759C300.336 193.623 300.378 193.491 300.453 193.393C300.528 193.295 300.63 193.237 300.738 193.233H302.396C302.503 193.237 302.606 193.295 302.681 193.393C302.756 193.491 302.798 193.623 302.798 193.759C302.798 193.896 302.756 194.027 302.681 194.126C302.606 194.224 302.503 194.281 302.396 194.285ZM298.25 194.285H296.593C296.485 194.281 296.383 194.224 296.308 194.126C296.233 194.027 296.191 193.896 296.191 193.759C296.191 193.623 296.233 193.491 296.308 193.393C296.383 193.295 296.485 193.237 296.593 193.233H298.25C298.358 193.237 298.461 193.295 298.536 193.393C298.611 193.491 298.653 193.623 298.653 193.759C298.653 193.896 298.611 194.027 298.536 194.126C298.461 194.224 298.358 194.281 298.25 194.285ZM480.421 271.33C480.311 271.33 480.205 271.275 480.128 271.176C480.05 271.078 480.006 270.944 480.006 270.804V270.4C480.009 270.263 480.054 270.133 480.132 270.038C480.209 269.943 480.313 269.89 480.421 269.89C480.529 269.89 480.632 269.943 480.71 270.038C480.787 270.133 480.832 270.263 480.836 270.4V270.804C480.836 270.873 480.825 270.942 480.804 271.006C480.783 271.069 480.753 271.127 480.714 271.176C480.676 271.225 480.63 271.264 480.58 271.29C480.529 271.317 480.475 271.33 480.421 271.33ZM480.421 267.755C480.311 267.755 480.205 267.7 480.128 267.601C480.05 267.502 480.006 267.368 480.006 267.229V265.119C480.009 264.982 480.054 264.852 480.132 264.757C480.209 264.662 480.313 264.609 480.421 264.609C480.529 264.609 480.632 264.662 480.71 264.757C480.787 264.852 480.832 264.982 480.836 265.119V267.229C480.836 267.368 480.792 267.502 480.714 267.601C480.636 267.7 480.531 267.755 480.421 267.755ZM480.421 262.482C480.311 262.482 480.205 262.427 480.128 262.328C480.05 262.229 480.006 262.096 480.006 261.956V259.848C480.009 259.711 480.054 259.582 480.132 259.487C480.209 259.391 480.313 259.338 480.421 259.338C480.529 259.338 480.632 259.391 480.71 259.487C480.787 259.582 480.832 259.711 480.836 259.848V261.956C480.836 262.096 480.792 262.23 480.714 262.328C480.636 262.427 480.531 262.482 480.421 262.482ZM480.421 257.212C480.311 257.212 480.205 257.156 480.128 257.058C480.05 256.959 480.006 256.825 480.006 256.686V254.578C480.009 254.441 480.054 254.312 480.132 254.217C480.209 254.121 480.313 254.068 480.421 254.068C480.529 254.068 480.632 254.121 480.71 254.217C480.787 254.312 480.832 254.441 480.836 254.578V256.686C480.836 256.825 480.792 256.959 480.714 257.058C480.636 257.156 480.531 257.212 480.421 257.212ZM480.421 251.942C480.311 251.942 480.205 251.887 480.128 251.788C480.05 251.689 480.006 251.556 480.006 251.416V249.306C480.009 249.169 480.054 249.04 480.132 248.945C480.209 248.849 480.313 248.796 480.421 248.796C480.529 248.796 480.632 248.849 480.71 248.945C480.787 249.04 480.832 249.169 480.836 249.306V251.416C480.836 251.485 480.825 251.554 480.804 251.618C480.783 251.681 480.753 251.739 480.714 251.788C480.676 251.837 480.63 251.876 480.58 251.902C480.529 251.929 480.475 251.942 480.421 251.942ZM480.421 246.67C480.311 246.67 480.205 246.615 480.128 246.516C480.05 246.417 480.006 246.283 480.006 246.144V244.036C480.009 243.9 480.054 243.77 480.132 243.675C480.209 243.58 480.313 243.526 480.421 243.526C480.529 243.526 480.632 243.58 480.71 243.675C480.787 243.77 480.832 243.9 480.836 244.036V246.144C480.836 246.213 480.825 246.281 480.804 246.345C480.783 246.409 480.753 246.467 480.714 246.516C480.676 246.565 480.63 246.604 480.58 246.63C480.529 246.656 480.475 246.67 480.421 246.67ZM480.421 241.4C480.311 241.4 480.205 241.345 480.128 241.246C480.05 241.148 480.006 241.014 480.006 240.874V238.766C480.009 238.63 480.054 238.5 480.132 238.405C480.209 238.309 480.313 238.256 480.421 238.256C480.529 238.256 480.632 238.309 480.71 238.405C480.787 238.5 480.832 238.63 480.836 238.766V240.874C480.836 241.014 480.792 241.148 480.714 241.246C480.636 241.345 480.531 241.4 480.421 241.4ZM480.421 236.129C480.311 236.129 480.205 236.074 480.128 235.975C480.05 235.877 480.006 235.743 480.006 235.603V233.493C480.009 233.357 480.054 233.227 480.132 233.132C480.209 233.037 480.313 232.983 480.421 232.983C480.529 232.983 480.632 233.037 480.71 233.132C480.787 233.227 480.832 233.357 480.836 233.493V235.603C480.836 235.672 480.825 235.741 480.804 235.805C480.783 235.868 480.753 235.926 480.714 235.975C480.676 236.024 480.63 236.063 480.58 236.089C480.529 236.116 480.475 236.129 480.421 236.129ZM480.421 230.849C480.311 230.849 480.205 230.793 480.128 230.695C480.05 230.596 480.006 230.462 480.006 230.323V230.115C480.006 229.491 479.958 228.896 479.863 228.346C479.842 228.211 479.863 228.07 479.922 227.954C479.982 227.838 480.075 227.756 480.182 227.727C480.288 227.697 480.4 227.722 480.492 227.796C480.584 227.87 480.65 227.987 480.674 228.122C480.781 228.745 480.836 229.416 480.836 230.115V230.323C480.836 230.392 480.825 230.46 480.804 230.524C480.783 230.588 480.753 230.646 480.714 230.695C480.676 230.744 480.63 230.782 480.58 230.809C480.529 230.835 480.475 230.849 480.421 230.849ZM479.199 225.952C479.139 225.952 479.079 225.936 479.025 225.904C478.971 225.872 478.922 225.826 478.883 225.768C478.562 225.292 478.169 224.886 477.718 224.559C477.622 224.49 477.552 224.376 477.523 224.241C477.494 224.106 477.508 223.963 477.563 223.841C477.617 223.72 477.708 223.631 477.814 223.595C477.92 223.558 478.033 223.576 478.129 223.645C478.664 224.031 479.13 224.515 479.514 225.083C479.565 225.16 479.599 225.253 479.609 225.353C479.62 225.453 479.609 225.554 479.575 225.645C479.542 225.737 479.489 225.814 479.422 225.869C479.356 225.923 479.278 225.952 479.199 225.952ZM475.573 223.66C475.554 223.66 475.534 223.659 475.514 223.655C475.08 223.579 474.641 223.542 474.202 223.543H473.92C473.812 223.539 473.709 223.482 473.634 223.384C473.559 223.286 473.517 223.154 473.517 223.017C473.517 222.881 473.559 222.749 473.634 222.651C473.709 222.553 473.812 222.495 473.92 222.491H474.202C474.699 222.491 475.18 222.532 475.631 222.613C475.685 222.623 475.737 222.646 475.784 222.681C475.83 222.716 475.871 222.762 475.904 222.818C475.937 222.873 475.961 222.936 475.974 223.003C475.988 223.07 475.991 223.139 475.983 223.208C475.969 223.333 475.92 223.448 475.845 223.531C475.77 223.614 475.673 223.66 475.573 223.66ZM471.43 223.543H469.771C469.663 223.539 469.561 223.482 469.486 223.384C469.411 223.286 469.369 223.154 469.369 223.017C469.369 222.881 469.411 222.749 469.486 222.651C469.561 222.553 469.663 222.495 469.771 222.491H471.43C471.538 222.495 471.64 222.553 471.715 222.651C471.79 222.749 471.832 222.881 471.832 223.017C471.832 223.154 471.79 223.286 471.715 223.384C471.64 223.482 471.538 223.539 471.43 223.543ZM467.281 223.543H465.619C465.512 223.539 465.409 223.482 465.334 223.384C465.259 223.286 465.217 223.154 465.217 223.017C465.217 222.881 465.259 222.749 465.334 222.651C465.409 222.553 465.512 222.495 465.619 222.491H467.281C467.389 222.495 467.491 222.553 467.566 222.651C467.641 222.749 467.683 222.881 467.683 223.017C467.683 223.154 467.641 223.286 467.566 223.384C467.491 223.482 467.389 223.539 467.281 223.543Z" fill="#949899"/>
<path d="M375.017 139.987H453.654C457.198 139.987 460.07 150.598 460.07 163.686V335.47C460.07 348.558 457.197 359.169 453.654 359.169H375.017C371.474 359.169 368.602 348.558 368.602 335.47V163.686C368.602 150.597 371.474 139.987 375.017 139.987Z" fill="#E1ECF2"/>
<path d="M427.09 146.34H401.574C401.466 146.335 401.364 146.278 401.289 146.18C401.214 146.082 401.172 145.95 401.172 145.813C401.172 145.677 401.214 145.545 401.289 145.447C401.364 145.349 401.466 145.292 401.574 145.287H427.09C427.198 145.292 427.3 145.349 427.375 145.447C427.45 145.545 427.492 145.677 427.492 145.813C427.492 145.95 427.45 146.082 427.375 146.18C427.3 146.278 427.198 146.335 427.09 146.34Z" fill="#353640"/>
<path d="M379.648 173.431H449.016V261.39H379.648V173.431Z" fill="white"/>
<path d="M444.951 234.524V256.237H383.711V233.353C390.099 234.549 392.043 242.72 397.056 242.72C402.465 242.72 404.115 216.47 414.657 216.47C425.202 216.47 423.553 236.729 429.511 236.729C435.471 236.729 434.645 227.92 440.145 227.92C441.704 227.92 443.288 230.635 444.951 234.524Z" fill="#E1ECF2"/>
<path d="M401.678 210.08C405.302 210.08 408.239 206.355 408.239 201.761C408.239 197.166 405.302 193.441 401.678 193.441C398.055 193.441 395.117 197.166 395.117 201.761C395.117 206.355 398.055 210.08 401.678 210.08Z" fill="#E1ECF2"/>
<path d="M375.078 156.444H386.369V158.223H375.078V156.444ZM397.486 156.444H408.777V158.223H397.486V156.444ZM419.891 156.444H431.182V158.223H419.891V156.444ZM442.296 156.444H453.588V158.223H442.296V156.444ZM379.649 271.71H449.017V274.854H379.649V271.71ZM379.649 280.867H449.017V284.011H379.649V280.867ZM379.649 290.027H449.017V293.171H379.649V290.027ZM379.649 299.187H449.017V302.331H379.649V299.187ZM379.649 308.344H449.017V311.488H379.649V308.344ZM379.649 317.504H425.27V320.648H379.649V317.504ZM379.649 326.663H414.333V329.807H379.649V326.663Z" fill="white"/>
<path d="M142.582 147.936H277.898C283.996 147.936 288.94 154.629 288.94 162.886V271.266C288.94 279.523 283.996 286.217 277.898 286.217H142.582C136.483 286.217 131.539 279.523 131.539 271.266V162.886C131.539 154.629 136.483 147.936 142.582 147.936Z" fill="#E1ECF2"/>
<path d="M283.249 166.859H137.23C137.123 166.855 137.02 166.798 136.945 166.7C136.87 166.601 136.828 166.47 136.828 166.333C136.828 166.196 136.87 166.065 136.945 165.967C137.02 165.869 137.123 165.811 137.23 165.807H283.249C283.356 165.811 283.459 165.869 283.534 165.967C283.609 166.065 283.651 166.196 283.651 166.333C283.651 166.47 283.609 166.601 283.534 166.7C283.459 166.798 283.356 166.855 283.249 166.859ZM251.6 162.181C250.331 162.181 249.298 160.872 249.298 159.263C249.298 157.654 250.331 156.345 251.6 156.345C252.868 156.345 253.901 157.654 253.901 159.263C253.901 160.872 252.869 162.181 251.6 162.181ZM251.6 157.397C250.788 157.397 250.128 158.234 250.128 159.263C250.128 160.292 250.788 161.129 251.6 161.129C252.411 161.129 253.071 160.292 253.071 159.263C253.071 158.234 252.411 157.397 251.6 157.397ZM261.032 162.181C259.763 162.181 258.731 160.872 258.731 159.263C258.731 157.654 259.763 156.345 261.032 156.345C262.301 156.345 263.333 157.654 263.333 159.263C263.334 160.872 262.301 162.181 261.032 162.181ZM261.032 157.397C260.221 157.397 259.56 158.234 259.56 159.263C259.56 160.292 260.221 161.129 261.032 161.129C261.844 161.129 262.504 160.292 262.504 159.263C262.504 158.234 261.844 157.397 261.032 157.397ZM270.465 162.181C269.196 162.181 268.164 160.872 268.164 159.263C268.164 157.654 269.196 156.345 270.465 156.345C271.734 156.345 272.766 157.654 272.766 159.263C272.766 160.872 271.734 162.181 270.465 162.181ZM270.465 157.397C269.654 157.397 268.993 158.234 268.993 159.263C268.993 160.292 269.653 161.129 270.465 161.129C271.276 161.129 271.936 160.292 271.936 159.263C271.936 158.234 271.276 157.397 270.465 157.397Z" fill="#353640"/>
<path d="M142.688 189.318H197.912V259.344H142.688V189.318Z" fill="white"/>
<path d="M194.685 237.956V255.243H145.93V237.025C151.016 237.976 152.562 244.481 156.552 244.481C160.859 244.481 162.174 223.583 170.568 223.583C178.962 223.583 177.648 239.715 182.393 239.715C187.137 239.715 186.48 232.7 190.858 232.7C192.1 232.699 193.359 234.859 194.685 237.956Z" fill="#6BD181"/>
<path d="M160.232 218.498C163.117 218.498 165.455 215.532 165.455 211.874C165.455 208.216 163.117 205.251 160.232 205.251C157.347 205.251 155.008 208.216 155.008 211.874C155.008 215.532 157.347 218.498 160.232 218.498Z" fill="#FFAF18"/>
<path d="M142.688 176.257H162.118V179.321H142.688V176.257ZM181.244 176.257H200.674V179.321H181.244V176.257ZM219.8 176.257H239.23V179.321H219.8V176.257ZM258.358 176.257H277.789V179.321H258.358V176.257Z" fill="#FFAF18"/>
<path d="M207.117 196.033H274.694V199.096H207.117V196.033ZM207.117 204.955H274.694V208.019H207.117V204.955ZM207.117 213.878H274.694V216.941H207.117V213.878ZM207.117 222.8H274.694V225.864H207.117V222.8ZM207.117 231.723H274.694V234.786H207.117V231.723ZM207.117 240.645H251.56V243.709H207.117V240.645ZM207.117 249.568H240.905V252.631H207.117V249.568Z" fill="white"/>
<path d="M83.0541 405.651H200.424C205.738 405.651 210.086 400.138 210.086 393.398V314.001H73.3906V393.398C73.3906 400.138 77.7388 405.651 83.0541 405.651Z" fill="#353640"/>
<path d="M83.2656 326.345H111.456V329.409H83.2656V326.345Z" fill="#949899"/>
<path d="M117.594 326.345H145.784V329.409H117.594V326.345Z" fill="#7DA3FB"/>
<path d="M150.323 326.345H167.351V329.409H150.323V326.345ZM83.2656 353.729H111.456V356.792H83.2656V353.729ZM83.2656 390.244H111.456V393.307H83.2656V390.244Z" fill="#949899"/>
<path d="M117.594 335.472H127.03V338.536H117.594V335.472Z" fill="#7DA3FB"/>
<path d="M117.594 344.602H145.784V347.665H117.594V344.602ZM117.594 353.729H131.689V356.792H117.594V353.729Z" fill="#FFAF18"/>
<path d="M117.594 362.858H145.784V365.922H117.594V362.858Z" fill="#7DA3FB"/>
<path d="M117.594 371.987H160.002V375.051H117.594V371.987Z" fill="#FFAF18"/>
<path d="M117.594 381.114H135.735V384.178H117.594V381.114Z" fill="#949899"/>
<path d="M117.594 390.244H145.784V393.307H117.594V390.244ZM131.689 335.472H167.355V338.536H131.689V335.472Z" fill="#FFAF18"/>
<path d="M150.328 344.602H165.149V347.665H150.328V344.602Z" fill="#7DA3FB"/>
<path d="M136.844 353.729H153.872V356.792H136.844V353.729Z" fill="#949899"/>
<path d="M150.328 362.858H167.357V365.922H150.328V362.858Z" fill="#FFAF18"/>
<path d="M166.754 371.987H183.782V375.051H166.754V371.987ZM139.789 381.114H182.065V384.178H139.789V381.114ZM150.33 390.244H167.359V393.307H150.33V390.244Z" fill="#7DA3FB"/>
<path d="M158.648 353.729H200.198V356.792H158.648V353.729Z" fill="#FFAF18"/>
<path d="M172.57 390.244H196.283V393.307H172.57V390.244Z" fill="#949899"/>
<path d="M186.359 381.114H196.769V384.178H186.359V381.114Z" fill="#FFAF18"/>
<path d="M174.1 362.858H193.578V365.922H174.1V362.858ZM168.586 344.602H193.459V347.665H168.586V344.602Z" fill="#949899"/>
<path d="M173.852 335.472H196.038V338.536H173.852V335.472Z" fill="#7DA3FB"/>
<path d="M173.547 326.345H198.607V329.409H173.547V326.345Z" fill="#FFAF18"/>
<path d="M79.7188 294.766H203.758C207.238 294.766 210.086 298.377 210.086 302.79V310.814H73.3906V302.79C73.3906 298.377 76.2383 294.766 79.7188 294.766Z" fill="#7DA3FB"/>
<path d="M178.608 446.908C189.287 446.908 197.943 435.931 197.943 422.391C197.943 408.851 189.287 397.874 178.608 397.874C167.93 397.874 159.273 408.851 159.273 422.391C159.273 435.931 167.93 446.908 178.608 446.908Z" fill="#F72E70"/>
<path d="M169.619 428.023L166.047 423.092L169.619 418.162H173.402L169.812 423.092L173.402 428.023H169.619ZM182.534 409.706L177.818 435.073H174.916L179.63 409.706H182.534ZM183.817 418.162H187.6L191.172 423.092L187.6 428.023H183.817L187.407 423.092L183.817 418.162Z" fill="white"/>
<path d="M178.61 445.203C178.502 445.199 178.4 445.142 178.325 445.043C178.25 444.945 178.208 444.814 178.208 444.677C178.208 444.54 178.25 444.409 178.325 444.311C178.4 444.212 178.502 444.155 178.61 444.151C180.55 444.151 182.455 443.744 184.27 442.941C184.322 442.917 184.376 442.907 184.431 442.91C184.486 442.913 184.54 442.93 184.59 442.96C184.64 442.99 184.684 443.032 184.721 443.084C184.758 443.136 184.786 443.196 184.804 443.262C184.822 443.328 184.83 443.398 184.826 443.467C184.823 443.537 184.809 443.605 184.785 443.668C184.76 443.73 184.726 443.786 184.685 443.832C184.644 443.878 184.595 443.913 184.543 443.935C182.64 444.776 180.644 445.203 178.61 445.203ZM171.237 443.154C171.178 443.154 171.119 443.139 171.063 443.106C164.717 439.383 160.617 431.252 160.617 422.391C160.617 413.959 164.262 406.247 170.13 402.263C170.178 402.23 170.23 402.21 170.284 402.203C170.339 402.196 170.393 402.203 170.446 402.223C170.498 402.243 170.546 402.276 170.588 402.32C170.631 402.363 170.665 402.417 170.691 402.478C170.717 402.539 170.733 402.606 170.738 402.675C170.744 402.743 170.738 402.813 170.723 402.879C170.707 402.945 170.681 403.007 170.646 403.06C170.612 403.114 170.569 403.158 170.521 403.19C164.924 406.991 161.447 414.348 161.447 422.391C161.447 430.844 165.358 438.6 171.411 442.151C171.496 442.201 171.566 442.287 171.608 442.395C171.649 442.502 171.661 442.624 171.641 442.741C171.621 442.858 171.569 442.963 171.496 443.038C171.422 443.113 171.331 443.154 171.237 443.154ZM193.365 435.034C193.291 435.034 193.217 435.008 193.153 434.96C193.089 434.912 193.037 434.842 193.001 434.759C192.965 434.676 192.948 434.582 192.951 434.487C192.954 434.393 192.977 434.301 193.018 434.222C194.82 430.701 195.773 426.609 195.773 422.391C195.773 410.391 188.074 400.628 178.61 400.628C178.502 400.624 178.4 400.567 178.325 400.469C178.25 400.371 178.208 400.239 178.208 400.102C178.208 399.966 178.25 399.834 178.325 399.736C178.4 399.638 178.502 399.58 178.61 399.576C188.531 399.576 196.603 409.811 196.603 422.391C196.603 426.813 195.604 431.102 193.714 434.794C193.634 434.95 193.501 435.034 193.365 435.034Z" fill="white"/>
<path d="M170.469 124.792H192.946V153.293H170.469V124.792Z" fill="#FFAF18"/>
<path d="M192.95 152.02H171.715C171.607 152.015 171.505 151.958 171.43 151.86C171.354 151.762 171.312 151.63 171.312 151.493C171.312 151.357 171.354 151.225 171.43 151.127C171.505 151.029 171.607 150.972 171.715 150.967H192.535V124.792C192.538 124.655 192.584 124.525 192.661 124.43C192.739 124.335 192.842 124.281 192.95 124.281C193.058 124.281 193.162 124.335 193.239 124.43C193.316 124.525 193.362 124.655 193.365 124.792V151.493C193.365 151.633 193.321 151.767 193.243 151.865C193.166 151.964 193.06 152.02 192.95 152.02Z" fill="#2A1D19"/>
<path d="M176.908 134.759L180.966 139.904L187.752 131.299L189.754 133.84L182.97 142.445L180.966 144.983L178.964 142.445L174.906 137.3L176.908 134.759Z" fill="white"/>
<path d="M448 280.105H495.975V318.836H448V280.105Z" fill="#D0D3D4"/>
<path d="M451.914 285.074H492.054V313.867H451.914V285.074Z" fill="#F72E70"/>
<path d="M466.094 290.082L478.917 299.469L466.094 308.859V290.082Z" fill="white"/>
<path d="M492.05 319.362H447.993C447.883 319.362 447.777 319.306 447.7 319.208C447.622 319.109 447.578 318.975 447.578 318.836V280.105C447.581 279.969 447.627 279.839 447.704 279.744C447.782 279.648 447.885 279.595 447.993 279.595C448.101 279.595 448.205 279.648 448.282 279.744C448.359 279.839 448.405 279.969 448.408 280.105V318.31H492.05C492.157 318.314 492.26 318.371 492.335 318.469C492.41 318.568 492.452 318.699 492.452 318.836C492.452 318.973 492.41 319.104 492.335 319.202C492.26 319.3 492.157 319.358 492.05 319.362Z" fill="#2A1D19"/>
<path d="M354.66 247.895H374.892C378.669 247.895 381.76 243.976 381.76 239.187C381.76 234.395 378.67 230.476 374.892 230.476C373.744 230.474 372.615 230.841 371.609 231.543C370.142 227.809 367.098 225.228 363.599 225.228C359.086 225.228 355.327 229.525 354.742 235.053C354.551 235.026 354.356 235.01 354.158 235.01C351.365 235.01 349.078 237.91 349.078 241.452C349.078 244.998 351.365 247.894 354.158 247.894H354.66V247.895Z" fill="#F72E70"/>
<path d="M374.893 248.421H354.159C351.129 248.421 348.664 245.295 348.664 241.453C348.664 237.611 351.129 234.485 354.159 234.485C354.236 234.485 354.313 234.487 354.392 234.491C355.177 228.876 359.068 224.702 363.6 224.702C363.708 224.706 363.81 224.763 363.885 224.861C363.96 224.96 364.002 225.091 364.002 225.228C364.002 225.365 363.96 225.496 363.885 225.594C363.81 225.692 363.708 225.75 363.6 225.754C359.35 225.754 355.719 229.782 355.154 235.124C355.139 235.26 355.083 235.383 354.997 235.468C354.911 235.552 354.803 235.591 354.695 235.576C354.517 235.55 354.339 235.537 354.159 235.537C351.587 235.537 349.494 238.191 349.494 241.453C349.494 244.714 351.587 247.369 354.159 247.369H374.893C375.002 247.371 375.105 247.428 375.181 247.527C375.257 247.625 375.299 247.757 375.299 247.895C375.299 248.032 375.257 248.164 375.181 248.263C375.105 248.361 375.002 248.418 374.893 248.421ZM371.61 232.07C371.518 232.07 371.429 232.031 371.356 231.959C371.283 231.888 371.231 231.788 371.208 231.675C371.185 231.562 371.193 231.442 371.229 231.335C371.266 231.228 371.329 231.139 371.41 231.082C372.478 230.34 373.676 229.951 374.893 229.95C375.001 229.954 375.103 230.012 375.178 230.11C375.254 230.208 375.296 230.34 375.296 230.476C375.296 230.613 375.254 230.745 375.178 230.843C375.103 230.941 375.001 230.998 374.893 231.002C373.815 231.003 372.755 231.348 371.81 232.005C371.746 232.049 371.678 232.07 371.61 232.07Z" fill="#353640"/>
<path d="M456.365 170.999H477.256C478.183 170.999 478.942 171.96 478.942 173.136V188.518C478.942 189.694 478.183 190.656 477.256 190.656H456.365C455.438 190.656 454.68 189.694 454.68 188.518V173.136C454.68 171.96 455.438 170.999 456.365 170.999Z" fill="#7DA3FB"/>
<path d="M466.81 181.353C466.747 181.353 466.683 181.335 466.625 181.298L454.494 173.607C454.444 173.577 454.399 173.534 454.363 173.482C454.326 173.43 454.298 173.369 454.28 173.303C454.262 173.237 454.255 173.167 454.259 173.097C454.262 173.027 454.277 172.959 454.302 172.897C454.326 172.834 454.36 172.779 454.402 172.733C454.444 172.688 454.493 172.653 454.545 172.632C454.597 172.61 454.653 172.602 454.708 172.608C454.762 172.614 454.816 172.633 454.865 172.666L466.81 180.239L478.755 172.666C478.804 172.635 478.857 172.616 478.912 172.611C478.966 172.607 479.02 172.615 479.072 172.637C479.124 172.659 479.172 172.694 479.213 172.739C479.254 172.784 479.288 172.839 479.312 172.901C479.336 172.963 479.351 173.03 479.355 173.099C479.359 173.168 479.352 173.237 479.335 173.303C479.317 173.368 479.29 173.429 479.254 173.481C479.219 173.533 479.175 173.576 479.127 173.607L466.996 181.298C466.937 181.335 466.874 181.353 466.81 181.353Z" fill="#353640"/>
<path d="M454.681 189.044C454.594 189.045 454.509 189.01 454.438 188.945C454.367 188.881 454.314 188.789 454.287 188.685C454.259 188.58 454.259 188.467 454.285 188.361C454.311 188.256 454.362 188.163 454.432 188.097L464.153 178.88C464.241 178.796 464.352 178.76 464.461 178.78C464.57 178.8 464.668 178.874 464.734 178.986C464.8 179.098 464.828 179.238 464.812 179.376C464.797 179.514 464.738 179.639 464.65 179.722L454.929 188.94C454.857 189.008 454.77 189.044 454.681 189.044ZM478.942 189.044C478.856 189.044 478.769 189.01 478.694 188.94L468.973 179.722C468.885 179.639 468.826 179.514 468.811 179.376C468.795 179.238 468.823 179.098 468.889 178.986C468.955 178.874 469.053 178.8 469.162 178.78C469.271 178.76 469.382 178.796 469.47 178.88L479.191 188.097C479.261 188.163 479.312 188.256 479.338 188.361C479.364 188.467 479.364 188.58 479.336 188.685C479.308 188.789 479.256 188.881 479.185 188.945C479.114 189.01 479.029 189.045 478.942 189.044Z" fill="#353640"/>
<path d="M96.2031 424.647H116.352V540.089H96.2031V424.647Z" fill="#F2889E"/>
<path d="M98.9462 534.625C98.8361 534.625 98.7306 534.57 98.6528 534.471C98.575 534.372 98.5313 534.238 98.5312 534.099V430.64C98.5346 430.503 98.5798 430.373 98.6572 430.278C98.7347 430.183 98.8383 430.13 98.9462 430.13C99.054 430.13 99.1577 430.183 99.2351 430.278C99.3126 430.373 99.3577 430.503 99.3611 430.64V534.099C99.3611 534.238 99.3174 534.372 99.2396 534.471C99.1617 534.57 99.0562 534.625 98.9462 534.625Z" fill="white"/>
<path d="M116.352 442.368H129.219V540.089H116.352V442.368Z" fill="#FFAF18"/>
<path d="M119.274 535.284C119.164 535.284 119.059 535.228 118.981 535.129C118.903 535.031 118.859 534.897 118.859 534.758V447.703C118.863 447.566 118.908 447.436 118.985 447.341C119.063 447.246 119.166 447.192 119.274 447.192C119.382 447.192 119.486 447.246 119.563 447.341C119.641 447.436 119.686 447.566 119.689 447.703V534.758C119.689 534.897 119.645 535.031 119.568 535.13C119.49 535.228 119.384 535.284 119.274 535.284Z" fill="white"/>
<path d="M129.219 435.429H147.129V540.092H129.219V435.429Z" fill="#5630AD"/>
<path d="M133.282 534.905C133.172 534.905 133.067 534.85 132.989 534.751C132.911 534.652 132.867 534.519 132.867 534.379V441.142C132.871 441.005 132.916 440.875 132.993 440.78C133.071 440.685 133.174 440.632 133.282 440.632C133.39 440.632 133.494 440.685 133.571 440.78C133.649 440.875 133.694 441.005 133.697 441.142V534.379C133.697 534.519 133.653 534.652 133.575 534.751C133.498 534.85 133.392 534.905 133.282 534.905Z" fill="white"/>
<path d="M116.356 540.618H96.207C96.0991 540.614 95.9968 540.556 95.9218 540.458C95.8467 540.36 95.8047 540.229 95.8047 540.092C95.8047 539.955 95.8467 539.824 95.9218 539.725C95.9968 539.627 96.0991 539.57 96.207 539.566H115.941V429.436C115.944 429.299 115.989 429.17 116.067 429.074C116.144 428.979 116.248 428.926 116.356 428.926C116.464 428.926 116.567 428.979 116.645 429.074C116.722 429.17 116.767 429.299 116.771 429.436V540.092C116.771 540.161 116.76 540.229 116.739 540.293C116.718 540.357 116.688 540.415 116.649 540.464C116.611 540.513 116.565 540.551 116.515 540.578C116.464 540.604 116.41 540.618 116.356 540.618ZM139.422 540.618H129.223C129.113 540.618 129.008 540.562 128.93 540.464C128.852 540.365 128.808 540.231 128.808 540.092V442.368C128.811 442.231 128.857 442.102 128.934 442.007C129.012 441.911 129.115 441.858 129.223 441.858C129.331 441.858 129.435 441.911 129.512 442.007C129.589 442.102 129.635 442.231 129.638 442.368V539.565H139.422C139.53 539.568 139.634 539.625 139.709 539.724C139.785 539.822 139.828 539.954 139.828 540.092C139.828 540.229 139.785 540.361 139.709 540.46C139.634 540.558 139.53 540.615 139.422 540.618Z" fill="#2A1D19"/>
<path d="M227.853 362.31C227.853 362.31 220.86 372.823 214.641 400.62C208.423 428.419 204.692 463.231 201.376 481.339C199.923 489.269 197.516 500.675 197.203 510.988C201.529 548.601 233.007 530.566 236.721 485.035C236.721 485.035 242.318 449.459 246.05 419.108C249.781 388.76 242.112 347.188 227.853 362.31ZM365.484 361.165C365.484 361.165 377.163 374.554 383.382 393.216C389.601 411.879 393.955 453.933 398.307 485.212C400.432 500.486 400.729 513.627 398.134 523.08C390.114 546.279 351.249 533.228 358.161 488.212C358.161 488.212 357.056 442.762 354.155 403.86C351.251 364.957 356.63 351.627 365.484 361.165Z" fill="#7DA3FB"/>
<path d="M280.641 336.951C280.641 336.951 235.729 350.579 227.852 362.409C219.973 374.236 230.96 441.785 240.91 539.565H352.85C352.85 539.565 370.883 374.233 366.324 362.669C361.763 351.104 308.246 334.284 308.246 334.284L280.641 336.951Z" fill="#7DA3FB"/>
<path d="M304.652 410.374H304.646L290.654 410.108C290.544 410.107 290.439 410.051 290.362 409.952C290.284 409.852 290.241 409.718 290.242 409.578C290.243 409.439 290.287 409.306 290.366 409.208C290.444 409.11 290.55 409.055 290.66 409.056H290.666L304.206 409.313L301.854 366.907C301.846 366.768 301.883 366.63 301.955 366.525C302.027 366.419 302.129 366.355 302.239 366.345C302.468 366.328 302.666 366.543 302.682 366.833L305.066 409.81C305.07 409.882 305.062 409.955 305.043 410.023C305.024 410.091 304.995 410.153 304.956 410.206C304.917 410.259 304.87 410.301 304.818 410.33C304.765 410.359 304.709 410.374 304.652 410.374Z" fill="#353640"/>
<path d="M296.359 381.854C298.391 381.854 300.039 379.765 300.039 377.188C300.039 374.611 298.391 372.522 296.359 372.522C294.327 372.522 292.68 374.611 292.68 377.188C292.68 379.765 294.327 381.854 296.359 381.854Z" fill="white"/>
<path d="M296.359 401.96C298.391 401.96 300.039 399.871 300.039 397.294C300.039 394.717 298.391 392.628 296.359 392.628C294.327 392.628 292.68 394.717 292.68 397.294C292.68 399.871 294.327 401.96 296.359 401.96Z" fill="white"/>
<path d="M234.841 484.095C234.742 484.095 234.645 484.049 234.57 483.966C234.494 483.883 234.445 483.768 234.431 483.643L227.934 425.296C227.918 425.158 227.947 425.018 228.013 424.906C228.079 424.795 228.178 424.721 228.286 424.701C228.395 424.682 228.506 424.718 228.594 424.802C228.682 424.886 228.74 425.011 228.755 425.149L235.253 483.495C235.261 483.57 235.257 483.646 235.24 483.718C235.223 483.791 235.194 483.858 235.155 483.914C235.116 483.971 235.068 484.017 235.014 484.048C234.96 484.079 234.901 484.095 234.841 484.095ZM358.441 485.867C358.383 485.867 358.325 485.851 358.271 485.821C358.218 485.791 358.17 485.747 358.131 485.691C358.092 485.636 358.063 485.571 358.045 485.5C358.028 485.429 358.022 485.354 358.029 485.281L364.252 416.101C364.258 416.032 364.274 415.966 364.301 415.905C364.327 415.845 364.363 415.791 364.405 415.748C364.448 415.705 364.497 415.673 364.549 415.654C364.602 415.636 364.657 415.63 364.711 415.638C364.765 415.646 364.817 415.667 364.865 415.701C364.913 415.734 364.955 415.779 364.989 415.833C365.023 415.887 365.048 415.949 365.063 416.016C365.078 416.082 365.082 416.152 365.076 416.22L358.853 485.4C358.842 485.528 358.793 485.647 358.717 485.733C358.641 485.819 358.543 485.866 358.441 485.867Z" fill="#2A1D19"/>
<path d="M281.578 308.78H307.145L308.486 339.797C308.486 372.522 280.547 364.637 280.547 339.797L281.578 308.78Z" fill="#FCCAC3"/>
<path d="M281.575 308.78H307.142L308.103 330.991C299.001 334.531 287.171 332.389 281.031 325.132L281.575 308.78Z" fill="#2A1D19"/>
<path d="M296.251 361.478C296.251 361.478 287.914 357.42 280.642 336.951L270.867 338.551L274.805 378.699C274.805 378.699 286.515 375.149 296.26 364.506L313.983 377.387C313.983 377.387 320.627 357.582 318.289 337.65L308.248 334.284C308.248 334.284 307.143 354.781 296.251 361.478Z" fill="white"/>
<path d="M274.806 379.226C274.705 379.226 274.608 379.179 274.532 379.094C274.456 379.009 274.407 378.892 274.395 378.765L271.816 352.471C271.809 352.403 271.813 352.333 271.827 352.267C271.842 352.2 271.867 352.138 271.9 352.083C271.933 352.029 271.975 351.983 272.023 351.949C272.07 351.915 272.122 351.893 272.176 351.884C272.23 351.876 272.285 351.881 272.338 351.899C272.39 351.917 272.44 351.948 272.483 351.991C272.526 352.033 272.562 352.086 272.589 352.146C272.615 352.207 272.633 352.273 272.639 352.341L275.168 378.127C276.703 377.88 282.916 376.343 293.027 367.085C293.071 367.044 293.121 367.015 293.174 366.999C293.227 366.983 293.282 366.981 293.336 366.992C293.39 367.003 293.441 367.027 293.488 367.063C293.534 367.1 293.574 367.147 293.606 367.203C293.638 367.259 293.661 367.323 293.674 367.39C293.686 367.457 293.688 367.527 293.679 367.595C293.671 367.663 293.652 367.729 293.623 367.787C293.594 367.846 293.557 367.897 293.513 367.938C281.578 378.866 275.088 379.216 274.818 379.225L274.806 379.226ZM313.983 377.914C313.915 377.914 313.848 377.892 313.788 377.851C313.727 377.811 313.676 377.751 313.638 377.679C313.6 377.607 313.577 377.524 313.571 377.438C313.564 377.352 313.574 377.265 313.601 377.185C316.797 367.444 317.997 354.753 318.009 354.626C318.022 354.488 318.078 354.361 318.164 354.275C318.25 354.188 318.36 354.149 318.469 354.165C318.579 354.181 318.678 354.252 318.747 354.361C318.815 354.471 318.846 354.61 318.833 354.749C318.821 354.877 317.607 367.714 314.366 377.589C314.335 377.685 314.282 377.767 314.214 377.825C314.146 377.883 314.065 377.914 313.983 377.914ZM287.992 353.046C287.934 353.046 287.877 353.031 287.824 353.001C287.772 352.972 287.724 352.928 287.685 352.874C284.81 348.871 281.122 339.483 280.966 339.085C280.921 338.961 280.916 338.819 280.952 338.69C280.988 338.561 281.062 338.455 281.159 338.395C281.255 338.334 281.367 338.323 281.47 338.365C281.572 338.406 281.658 338.497 281.709 338.617C281.747 338.713 285.502 348.272 288.299 352.165C288.353 352.241 288.389 352.334 288.402 352.435C288.415 352.536 288.404 352.639 288.372 352.732C288.339 352.826 288.286 352.905 288.219 352.961C288.151 353.016 288.073 353.046 287.992 353.046Z" fill="#2A1D19"/>
<path d="M197.208 510.703L197.198 510.975V510.985C196.794 524.223 199.839 535.661 212.772 535.661C235.782 535.661 251.535 543.312 264.18 537.193C276.826 531.071 291.128 475.727 259.414 480.829L236.716 485.035C236.716 485.035 223.027 487.458 210.175 492.32C198.41 496.771 197.31 508.714 197.208 510.703Z" fill="#7DA3FB"/>
<path d="M197.461 519.004C198.514 528.525 202.557 535.661 212.772 535.661C235.782 535.661 251.535 543.312 264.179 537.192C273.638 532.613 284.02 500.503 275.387 486.738C271.095 483.64 264.844 481.359 256.884 484.457C240.771 490.728 250.198 522.605 250.198 522.605C246.327 534.394 224.493 525.759 212.469 526.812C200.589 527.851 197.533 519.209 197.461 519.004Z" fill="#647EDD"/>
<path d="M213.446 491.663C213.346 491.663 213.249 491.617 213.174 491.534C213.099 491.451 213.049 491.336 213.035 491.21C213.021 491.085 213.043 490.957 213.098 490.851C213.152 490.745 213.235 490.667 213.33 490.631C213.567 490.544 237.173 481.946 256.751 480.793C265.038 480.305 271.044 481.723 274.598 485.006C277.34 487.541 277.529 490.264 277.535 490.379C277.542 490.516 277.505 490.652 277.433 490.755C277.361 490.859 277.26 490.923 277.152 490.933C277.043 490.943 276.936 490.899 276.853 490.81C276.77 490.721 276.718 490.594 276.708 490.456C276.707 490.436 276.514 488.032 274.027 485.782C271.682 483.661 266.787 481.256 256.789 481.844C237.311 482.991 213.796 491.556 213.561 491.642C213.524 491.656 213.485 491.663 213.446 491.663Z" fill="#2A1D19"/>
<path d="M243.225 513.1C243.225 513.1 253.963 489.686 261.302 486.1C268.639 482.514 275.929 503.731 275.929 503.731C275.929 503.731 284.075 492.888 287.779 494.006C291.482 495.121 291.835 499.529 289.924 501.828C288.014 504.124 278.201 526.097 270.13 523.082C270.13 523.082 266.595 533.077 257.288 531.861C247.981 530.645 241.778 515.55 243.225 513.1Z" fill="#FCCAC3"/>
<path d="M256.985 489.832C256.985 489.832 264.929 498.827 267.158 501.053C269.389 503.277 274.338 502.772 272.521 496.817C270.706 490.859 263.789 482.176 260.939 481.826C258.09 481.475 254.193 486.688 256.985 489.832ZM242.12 518.472C242.12 518.472 251.065 531.013 254.502 527.387C257.938 523.761 251.115 515.356 247.336 510.105C243.555 504.856 238.538 512.403 242.12 518.472Z" fill="#FCCAC3"/>
<path d="M245.876 499.996C245.876 499.996 243.04 504.437 247.186 509.9C251.331 515.361 257.751 520.95 260.099 517.876C262.447 514.803 259.828 509.277 254.205 502.88C248.579 496.486 246.889 498.379 245.876 499.996Z" fill="#FCCAC3"/>
<path d="M249.778 489.986C249.778 489.986 252.184 485.686 256.237 489.524C260.293 493.359 268.874 504.854 265.226 509.032C261.577 513.211 251.609 499.741 249.776 496.504C247.941 493.269 249.778 489.986 249.778 489.986Z" fill="#FCCAC3"/>
<path d="M270.135 523.606C269.993 523.606 269.855 523.513 269.778 523.347C265.542 514.231 270.163 505.643 270.211 505.557C270.242 505.5 270.282 505.452 270.328 505.414C270.373 505.377 270.425 505.352 270.478 505.34C270.532 505.327 270.587 505.329 270.64 505.344C270.693 505.358 270.744 505.386 270.788 505.426C270.833 505.465 270.871 505.516 270.901 505.574C270.93 505.632 270.95 505.697 270.96 505.765C270.969 505.833 270.968 505.903 270.956 505.97C270.945 506.038 270.923 506.102 270.892 506.158C270.847 506.239 266.533 514.29 270.493 522.812C270.53 522.892 270.55 522.983 270.55 523.076C270.551 523.169 270.532 523.26 270.496 523.34C270.459 523.421 270.407 523.488 270.344 523.534C270.28 523.581 270.209 523.606 270.135 523.606ZM270.085 502.802C268.928 502.802 267.726 502.282 266.907 501.467C264.694 499.256 257.039 490.592 256.715 490.224C256.633 490.131 256.583 490.001 256.577 489.862C256.571 489.722 256.608 489.586 256.682 489.482C256.755 489.378 256.858 489.315 256.968 489.307C257.077 489.299 257.185 489.347 257.267 489.44C257.347 489.529 265.227 498.45 267.42 500.64C268.661 501.876 270.741 502.11 271.784 501.132C272.822 500.159 272.55 498.351 272.14 497.006C270.326 491.053 263.514 482.67 260.905 482.349C260.795 482.336 260.695 482.268 260.625 482.16C260.555 482.052 260.521 481.914 260.532 481.775C260.543 481.636 260.597 481.509 260.682 481.42C260.767 481.331 260.876 481.289 260.985 481.302C264.087 481.684 271.11 490.707 272.914 496.627C273.895 499.843 272.936 501.36 272.277 501.978C271.665 502.552 270.886 502.802 270.085 502.802ZM252.976 528.574C251.41 528.574 249.333 527.28 246.77 524.701C244.108 522.023 241.841 518.856 241.818 518.825C241.782 518.773 241.753 518.714 241.735 518.648C241.717 518.583 241.709 518.514 241.711 518.445C241.717 518.306 241.766 518.175 241.848 518.082C241.929 517.988 242.037 517.939 242.147 517.946C242.257 517.953 242.36 518.015 242.434 518.119C244.848 521.502 251.675 529.69 254.242 526.982C254.73 526.467 254.987 525.837 255.026 525.055C255.2 521.604 251.166 516.102 248.221 512.085C247.805 511.518 247.405 510.973 247.035 510.459C246.999 510.408 246.97 510.348 246.952 510.283C246.933 510.218 246.925 510.149 246.927 510.08C246.93 510.011 246.943 509.944 246.966 509.881C246.989 509.819 247.022 509.763 247.062 509.716C247.102 509.669 247.149 509.633 247.201 509.61C247.252 509.586 247.306 509.576 247.361 509.579C247.415 509.582 247.469 509.599 247.518 509.628C247.567 509.658 247.612 509.699 247.648 509.75C248.04 510.292 248.433 510.832 248.828 511.369C252.047 515.758 256.051 521.219 255.855 525.122C255.801 526.193 255.437 527.091 254.773 527.791C254.278 528.313 253.678 528.574 252.976 528.574Z" fill="#2A1D19"/>
<path d="M258.285 519.277H258.278C255.131 519.271 250.289 514.746 246.887 510.265C246.812 510.164 246.771 510.03 246.774 509.891C246.776 509.752 246.822 509.621 246.901 509.524C246.979 509.428 247.085 509.375 247.195 509.377C247.304 509.379 247.408 509.436 247.485 509.535C250.659 513.716 255.391 518.22 258.279 518.225H258.285C258.937 518.225 259.433 517.991 259.801 517.51C260.328 516.821 260.57 516.002 260.543 515.006C260.464 512.162 258.177 508.105 253.928 503.272C253.886 503.226 253.851 503.17 253.826 503.108C253.802 503.045 253.787 502.976 253.783 502.906C253.78 502.836 253.787 502.766 253.805 502.7C253.823 502.634 253.852 502.573 253.889 502.521C253.926 502.468 253.97 502.426 254.02 502.396C254.07 502.366 254.125 502.349 254.18 502.346C254.235 502.343 254.29 502.354 254.342 502.379C254.394 502.403 254.441 502.441 254.482 502.489C258.966 507.589 261.284 511.788 261.372 514.969C261.407 516.248 261.079 517.35 260.397 518.243C259.872 518.929 259.162 519.277 258.285 519.277Z" fill="#2A1D19"/>
<path d="M263.48 510.355C263.332 510.355 263.18 510.344 263.024 510.323C258.27 509.676 250.893 499.383 249.437 496.811C249.405 496.755 249.383 496.691 249.37 496.624C249.358 496.556 249.356 496.487 249.365 496.419C249.374 496.35 249.393 496.285 249.422 496.226C249.451 496.168 249.488 496.117 249.532 496.076C249.577 496.036 249.627 496.007 249.68 495.992C249.733 495.976 249.788 495.974 249.842 495.985C249.895 495.996 249.947 496.021 249.993 496.057C250.039 496.093 250.08 496.141 250.111 496.197C251.727 499.051 258.939 508.709 263.112 509.277C263.882 509.381 264.482 509.174 264.947 508.642C265.485 508.025 265.728 507.211 265.688 506.153C265.508 501.3 259.372 493.147 255.988 489.946C255.944 489.905 255.907 489.853 255.879 489.793C255.852 489.734 255.833 489.668 255.825 489.6C255.818 489.532 255.82 489.462 255.834 489.395C255.847 489.328 255.871 489.265 255.903 489.21C255.936 489.154 255.977 489.108 256.024 489.072C256.07 489.037 256.122 489.014 256.176 489.004C256.23 488.994 256.285 488.997 256.338 489.014C256.391 489.031 256.44 489.061 256.484 489.103C259.776 492.215 266.316 500.669 266.517 506.103C266.568 507.476 266.227 508.593 265.503 509.422C264.961 510.042 264.282 510.355 263.48 510.355Z" fill="#2A1D19"/>
<path d="M398.153 523.009C395.442 532.953 389.548 538.833 379.236 538.833H345.24C336.015 538.833 329.486 519.251 333.217 498.222C336.948 477.195 358.16 488.212 358.16 488.212C359.288 489.837 366.285 497.634 368.565 514.72C370.846 531.805 391.984 535.219 398.827 519.186C398.686 520.448 398.461 521.722 398.153 523.009Z" fill="#647EDD"/>
<path d="M384.363 491.438C384.321 491.438 384.279 491.43 384.237 491.413C384.162 491.383 376.473 488.387 358.166 488.738H358.16C358.05 488.739 357.944 488.685 357.866 488.587C357.787 488.489 357.743 488.355 357.742 488.216C357.741 488.076 357.784 487.942 357.862 487.843C357.939 487.743 358.044 487.687 358.154 487.686C376.62 487.332 384.176 490.285 384.488 490.41C384.582 490.449 384.663 490.528 384.715 490.635C384.767 490.742 384.787 490.868 384.772 490.992C384.757 491.116 384.707 491.229 384.632 491.311C384.557 491.393 384.462 491.438 384.363 491.438Z" fill="#2A1D19"/>
<path d="M363.097 517.415C363.097 517.415 357.881 491.149 351.611 485.131C345.338 479.113 333.711 496.948 333.711 496.948C333.711 496.948 328.242 483.675 324.439 483.448C320.636 483.224 319.339 487.337 320.674 490.216C322.009 493.092 326.65 517.65 335.066 517.579C335.066 517.579 336.283 528.422 345.493 530.516C354.703 532.608 363.953 520.276 363.097 517.415Z" fill="#FCCAC3"/>
<path d="M354.944 490.231C354.944 490.231 345.348 496.09 342.722 497.448C340.093 498.805 335.446 496.585 338.491 491.498C341.535 486.408 350.075 480.488 352.888 481.149C355.704 481.81 358.311 488.187 354.944 490.231ZM362.988 522.964C362.988 522.964 351.657 531.881 349.145 527.193C346.632 522.504 355.022 516.817 359.8 513.095C364.578 509.375 367.754 518.386 362.988 522.964Z" fill="#FCCAC3"/>
<path d="M363.406 503.892C363.406 503.892 365.163 509.156 359.989 512.951C354.815 516.748 347.428 519.87 345.84 516.092C344.254 512.315 347.973 507.922 354.773 503.748C361.575 499.572 362.785 501.984 363.406 503.892Z" fill="#FCCAC3"/>
<path d="M361.841 492.905C361.841 492.905 360.466 487.929 355.733 490.198C350.999 492.464 340.247 500.504 342.844 505.797C345.439 511.091 357.954 501.639 360.422 499.171C362.89 496.703 361.841 492.905 361.841 492.905Z" fill="#FCCAC3"/>
<path d="M335.063 518.105C334.98 518.105 334.899 518.073 334.831 518.014C334.762 517.955 334.709 517.871 334.678 517.774C334.647 517.676 334.64 517.569 334.658 517.466C334.676 517.363 334.718 517.269 334.778 517.197C340.453 510.378 338.049 501.142 338.024 501.05C338.005 500.984 337.997 500.914 338 500.844C338.002 500.775 338.016 500.706 338.04 500.643C338.064 500.58 338.097 500.524 338.138 500.477C338.179 500.431 338.228 500.395 338.28 500.372C338.332 500.35 338.387 500.341 338.442 500.345C338.497 500.35 338.551 500.369 338.6 500.4C338.649 500.432 338.693 500.475 338.729 500.528C338.765 500.581 338.792 500.643 338.809 500.709C338.836 500.808 341.406 510.682 335.349 517.961C335.269 518.057 335.166 518.105 335.063 518.105ZM341.018 498.366C339.713 498.366 338.355 497.79 337.603 496.547C337.104 495.722 336.513 493.927 338.157 491.179C341.183 486.123 349.902 479.913 352.962 480.632C353.069 480.658 353.164 480.737 353.225 480.852C353.287 480.967 353.31 481.108 353.29 481.244C353.27 481.381 353.209 481.501 353.119 481.58C353.029 481.66 352.918 481.69 352.81 481.666C350.236 481.064 341.861 486.73 338.819 491.815C338.131 492.965 337.476 494.607 338.261 495.907C339.051 497.213 341.101 497.715 342.562 496.961C345.147 495.624 354.666 489.815 354.761 489.757C354.86 489.701 354.972 489.696 355.073 489.743C355.175 489.79 355.258 489.886 355.305 490.009C355.352 490.133 355.359 490.274 355.324 490.404C355.29 490.534 355.217 490.642 355.121 490.705C354.729 490.944 345.484 496.587 342.875 497.935C342.327 498.218 341.679 498.366 341.018 498.366ZM351.673 529.082C350.329 529.082 349.369 528.551 348.799 527.488C348.314 526.583 348.16 525.592 348.341 524.544C349.003 520.723 354.045 516.876 358.097 513.785C358.592 513.409 359.087 513.029 359.579 512.647C359.673 512.574 359.786 512.551 359.893 512.583C360 512.616 360.093 512.701 360.15 512.819C360.208 512.938 360.226 513.081 360.2 513.217C360.175 513.353 360.108 513.47 360.014 513.543C359.519 513.927 359.022 514.308 358.525 514.687C354.816 517.516 349.737 521.391 349.152 524.769C349.019 525.535 349.128 526.231 349.486 526.897C351.361 530.397 359.708 524.922 362.766 522.517C362.812 522.48 362.864 522.455 362.918 522.443C362.972 522.432 363.027 522.434 363.08 522.45C363.133 522.465 363.184 522.494 363.228 522.534C363.272 522.575 363.31 522.626 363.339 522.685C363.368 522.744 363.387 522.809 363.396 522.878C363.405 522.946 363.403 523.016 363.39 523.083C363.378 523.151 363.355 523.214 363.323 523.271C363.291 523.327 363.25 523.374 363.203 523.411C363.175 523.433 360.305 525.682 357.163 527.323C354.918 528.495 353.084 529.082 351.673 529.082Z" fill="#2A1D19"/>
<path d="M348.891 518.33C348.303 518.33 347.763 518.251 347.288 518.078C346.441 517.771 345.831 517.187 345.475 516.34C345.014 515.242 344.939 514.067 345.252 512.85C346.031 509.823 349.174 506.601 354.593 503.275C354.692 503.219 354.804 503.214 354.905 503.261C355.007 503.308 355.09 503.403 355.137 503.526C355.184 503.649 355.191 503.791 355.157 503.921C355.123 504.051 355.051 504.159 354.955 504.222C349.82 507.374 346.737 510.47 346.041 513.176C345.797 514.125 345.851 514.998 346.207 515.845C346.457 516.439 346.885 516.838 347.515 517.066C350.294 518.072 355.822 515.402 359.782 512.496C359.877 512.432 359.988 512.417 360.091 512.454C360.195 512.492 360.283 512.579 360.337 512.697C360.39 512.815 360.406 512.955 360.38 513.087C360.354 513.22 360.289 513.334 360.198 513.407C356.62 516.032 352.051 518.33 348.891 518.33Z" fill="#2A1D19"/>
<path d="M345.66 507.91C345.311 507.91 344.98 507.877 344.669 507.808C343.675 507.588 342.941 507.004 342.485 506.075C341.97 505.025 341.885 503.832 342.233 502.53C343.609 497.379 351.738 491.545 355.58 489.706C355.683 489.658 355.796 489.664 355.896 489.722C355.995 489.779 356.073 489.884 356.111 490.014C356.15 490.144 356.147 490.288 356.102 490.414C356.057 490.541 355.975 490.64 355.873 490.691C351.922 492.582 344.248 498.268 343.019 502.868C342.751 503.871 342.807 504.739 343.19 505.52C343.52 506.193 344.05 506.603 344.812 506.772C345.072 506.83 345.351 506.857 345.647 506.857C350.053 506.858 358.118 500.798 360.158 498.758C360.245 498.674 360.354 498.637 360.462 498.654C360.57 498.671 360.669 498.741 360.736 498.85C360.804 498.959 360.835 499.097 360.823 499.234C360.811 499.371 360.757 499.497 360.672 499.584C358.84 501.416 350.576 507.91 345.66 507.91ZM266.907 301.771C266.907 301.771 256.171 286.784 254.868 257.423C253.562 228.059 279.653 225.205 292.662 223.525C305.67 221.841 314.54 236.076 315.676 244.741C316.812 253.403 324.137 289.388 311.364 297.052C298.59 304.718 266.907 301.771 266.907 301.771Z" fill="#2A1D19"/>
<path d="M308.508 284.395C308.508 284.395 313.65 261.809 320.74 267.06C327.833 272.311 329.212 306.071 311.377 300.1L308.508 284.395Z" fill="#FCCAC3"/>
<path d="M318.571 289.11C318.464 289.11 318.361 289.057 318.284 288.963C318.207 288.869 318.161 288.741 318.157 288.605C318.128 287.741 318.119 286.877 318.129 286.013C318.229 278.129 320.067 275.641 320.153 275.529C320.23 275.431 320.334 275.375 320.443 275.374C320.552 275.372 320.658 275.425 320.736 275.522C320.814 275.618 320.86 275.749 320.862 275.888C320.865 276.026 320.824 276.16 320.749 276.261C320.72 276.301 319.275 278.352 319 284.589C320.076 283.486 321.269 283.651 321.331 283.661C321.441 283.677 321.54 283.748 321.608 283.857C321.677 283.967 321.708 284.106 321.695 284.245C321.682 284.384 321.626 284.51 321.539 284.596C321.453 284.683 321.343 284.722 321.234 284.706C321.171 284.697 319.841 284.539 318.957 286.198C318.95 286.936 318.959 287.723 318.986 288.562C318.988 288.631 318.98 288.7 318.961 288.765C318.942 288.83 318.913 288.889 318.877 288.94C318.84 288.991 318.795 289.032 318.746 289.061C318.696 289.09 318.643 289.106 318.588 289.109C318.583 289.11 318.577 289.11 318.571 289.11Z" fill="#2A1D19"/>
<path d="M275.63 323.931C266.422 313.05 263.101 292.868 260.196 253.635C256.741 229.502 306.322 222.556 309.158 242.366C317.309 280.393 318.887 301.775 313.512 315.48C307.679 330.352 284.838 334.811 275.63 323.931Z" fill="#FCCAC3"/>
<path d="M270.363 293.174C270.363 293.174 257.914 274.635 251.691 282.952C245.467 291.266 254.097 323.355 271.926 309.179L270.363 293.174Z" fill="#FCCAC3"/>
<path d="M265.417 302.14C265.274 302.14 265.135 302.047 265.058 301.879C264.73 301.165 264.368 300.476 263.975 299.816C260.492 298.91 256.596 300.391 256.557 300.406C256.453 300.442 256.342 300.426 256.247 300.359C256.153 300.293 256.082 300.183 256.051 300.052C256.019 299.921 256.029 299.78 256.078 299.658C256.127 299.536 256.212 299.444 256.314 299.4C256.469 299.34 259.791 298.074 263.18 298.589C259.278 293.037 254.386 292.435 254.329 292.428C254.274 292.423 254.222 292.403 254.173 292.371C254.125 292.34 254.082 292.296 254.047 292.243C254.012 292.19 253.985 292.129 253.969 292.063C253.952 291.998 253.946 291.928 253.951 291.859C253.961 291.721 254.013 291.592 254.097 291.503C254.181 291.413 254.29 291.369 254.399 291.38C254.691 291.412 261.587 292.262 265.775 301.349C265.812 301.429 265.831 301.519 265.832 301.612C265.832 301.705 265.813 301.796 265.777 301.876C265.74 301.956 265.688 302.023 265.625 302.069C265.562 302.116 265.49 302.14 265.417 302.14ZM262.175 256.396C262.175 256.396 267.792 295.018 264.623 295.601C261.451 296.184 242.094 254.438 252.573 242.313C252.573 242.313 242.959 226.002 267.621 219.672C292.282 213.34 295.362 204.86 299.314 206.444C303.268 208.029 302.094 217.617 302.094 217.617C302.094 217.617 309.167 213.434 313.712 214.047C318.255 214.658 320.888 244.14 305.103 248.223C305.103 248.223 289.34 255.263 262.175 256.396Z" fill="#2A1D19"/>
<path d="M309.004 241.534C309.004 241.534 313.599 277.574 314.819 278.344C316.041 279.114 316.657 273.035 314.889 254.965C313.119 236.896 307.569 234.206 309.004 241.534ZM294.417 296.114C292.929 296.114 291.289 295.361 291.038 295.241C290.935 295.192 290.851 295.093 290.806 294.966C290.76 294.838 290.756 294.694 290.795 294.563C290.834 294.432 290.912 294.327 291.012 294.269C291.112 294.211 291.227 294.206 291.33 294.256C292.196 294.667 294.663 295.553 295.665 294.712C295.938 294.483 296.073 294.141 296.091 293.635C296.186 290.844 291.739 281.347 290.018 277.923C289.959 277.805 289.939 277.662 289.963 277.526C289.987 277.39 290.052 277.271 290.145 277.196C290.238 277.121 290.35 277.096 290.458 277.126C290.565 277.157 290.659 277.24 290.718 277.357C290.976 277.871 297.045 289.99 296.92 293.681C296.891 294.517 296.616 295.177 296.122 295.59C295.662 295.975 295.053 296.114 294.417 296.114Z" fill="#2A1D19"/>
<path d="M285.296 298.768C285.296 298.768 292.486 301.471 298.486 298.891C304.486 296.315 304.985 309.944 296.042 312.389C287.099 314.836 278.855 296.83 285.296 298.768Z" fill="white"/>
<path d="M279.271 273.818L279.273 273.817C280.337 273.573 281.356 274.468 281.549 275.817L281.949 278.613C282.142 279.962 281.436 281.254 280.372 281.499L280.37 281.499C279.306 281.744 278.287 280.849 278.094 279.5L277.694 276.704C277.5 275.355 278.206 274.063 279.271 273.818ZM299.614 269.137L299.616 269.137C300.68 268.892 301.7 269.787 301.892 271.136L302.293 273.932C302.486 275.281 301.78 276.574 300.716 276.818L300.714 276.819C300.461 276.877 300.201 276.871 299.95 276.802C299.698 276.733 299.46 276.602 299.249 276.417C299.037 276.231 298.857 275.994 298.718 275.72C298.579 275.446 298.483 275.14 298.437 274.819L298.037 272.024C297.844 270.674 298.55 269.382 299.614 269.137ZM272.345 270.683C272.345 270.683 281.402 269.389 283.543 268.107C285.682 266.825 284.506 263.8 281.396 264.594C278.287 265.389 268.379 269.914 272.345 270.683ZM306.177 262.899C306.177 262.899 297.34 265.722 294.979 265.475C292.621 265.228 292.884 261.872 296.016 261.231C299.146 260.59 309.676 260.411 306.177 262.899Z" fill="#2A1D19"/>
<path d="M402.834 374.036H407.726L389.728 493.579H384.836L402.834 374.036ZM504.674 374.036H407.728L389.73 493.579H486.676L504.674 374.036Z" fill="#353640"/>
<path d="M389.728 494.106C389.667 494.106 389.606 494.089 389.551 494.056C389.496 494.023 389.447 493.975 389.408 493.915C389.369 493.855 389.341 493.786 389.326 493.711C389.31 493.636 389.308 493.557 389.32 493.481L405.459 386.287C405.48 386.15 405.542 386.029 405.633 385.951C405.724 385.872 405.836 385.843 405.944 385.869C406.052 385.895 406.148 385.975 406.209 386.09C406.271 386.205 406.294 386.347 406.274 386.484L390.135 493.678C390.117 493.798 390.066 493.907 389.992 493.985C389.918 494.063 389.824 494.105 389.728 494.106Z" fill="white"/>
<path d="M482.73 531.278H412.006C410.095 531.278 408.531 533.261 408.531 535.684V540.089H486.205V535.684C486.205 533.261 484.641 531.278 482.73 531.278Z" fill="#353640"/>
<path d="M438.906 445.951H455.821V531.278H438.906V445.951Z" fill="#949899"/>
<path d="M442.673 525.332C442.563 525.332 442.457 525.276 442.379 525.178C442.302 525.079 442.258 524.945 442.258 524.806V445.951C442.261 445.815 442.306 445.685 442.384 445.59C442.461 445.494 442.565 445.441 442.673 445.441C442.781 445.441 442.884 445.494 442.962 445.59C443.039 445.685 443.084 445.815 443.088 445.951V524.806C443.088 524.945 443.044 525.079 442.966 525.178C442.888 525.276 442.783 525.332 442.673 525.332Z" fill="#353640"/>
<path d="M490.783 507.232H490.778C490.693 507.23 490.61 507.196 490.541 507.133C490.471 507.07 490.419 506.981 490.391 506.879C490.365 506.786 487.784 497.391 486.006 486.622C483.603 472.067 483.735 462.053 486.399 456.858C487.649 454.419 489.462 453.062 491.786 452.823C494.106 452.586 495.882 453.568 497.063 455.733C503.045 466.711 491.659 505.256 491.171 506.892C491.141 506.992 491.088 507.078 491.019 507.138C490.949 507.199 490.867 507.232 490.783 507.232ZM492.451 453.84C492.258 453.84 492.057 453.851 491.853 453.872C489.769 454.086 488.213 455.25 487.094 457.431C481.687 467.976 489.013 498.195 490.799 505.113C492.82 497.967 501.496 465.719 496.38 456.332C495.466 454.655 494.181 453.84 492.451 453.84Z" fill="#276169"/>
<path d="M491.171 512.978C491.171 512.978 489.538 479.895 498.968 465.701C508.401 451.508 519.491 455.058 522.806 460.708C526.124 466.36 518.868 470.695 507.364 472.931C495.86 475.164 491.171 512.978 491.171 512.978ZM488.037 503.953C488.037 503.953 468.091 471.742 472.292 451.694C476.491 431.644 492.513 443.034 488.037 503.953Z" fill="#59BD9F"/>
<path d="M488.95 504.084C488.95 504.084 488.95 504.084 488.95 504.084C485.82 504.083 483.44 500.519 480.683 496.392C477.681 491.897 474.278 486.802 468.857 484.065C462.062 480.633 457.412 474.906 458.041 470.741C458.365 468.6 460.148 466.047 466.8 466.047C467.81 466.047 468.914 466.108 470.081 466.229C477.534 466.998 483.567 473.63 487.53 485.407C490.499 494.232 491.284 502.95 491.292 503.037C491.302 503.154 491.281 503.271 491.232 503.371C491.183 503.471 491.109 503.548 491.022 503.588C490.318 503.917 489.621 504.084 488.95 504.084ZM466.8 467.1C462.052 467.1 459.231 468.463 458.857 470.939C458.309 474.557 462.837 479.893 469.165 483.088C474.778 485.922 478.403 491.35 481.317 495.712C484.048 499.801 486.205 503.031 488.95 503.032H488.95C489.433 503.032 489.918 502.934 490.425 502.735C490.231 500.909 489.317 493.392 486.759 485.799C482.87 474.255 477.237 468.024 470.014 467.278C468.87 467.16 467.788 467.1 466.8 467.1Z" fill="white"/>
<path d="M492.438 503.422C492.378 503.422 492.319 503.405 492.264 503.373C492.21 503.341 492.161 503.295 492.123 503.237C492.084 503.179 492.055 503.111 492.039 503.038C492.023 502.965 492.019 502.888 492.029 502.813C493.005 495.033 495.517 488.416 499.291 483.676C502.631 479.48 506.815 477.073 510.77 477.073C512.735 477.073 514.551 477.647 516.167 478.779C519.454 481.082 521.004 484.935 520.211 488.835C519.48 492.431 516.562 496.059 511.694 496.059H511.693C510.939 496.059 510.154 495.969 509.362 495.79C508.415 495.578 507.454 495.47 506.492 495.469C498.402 495.469 492.801 503.171 492.746 503.249C492.707 503.303 492.659 503.347 492.606 503.376C492.553 503.406 492.496 503.421 492.438 503.422ZM510.77 478.125C507.032 478.125 503.061 480.421 499.874 484.423C496.488 488.676 494.151 494.511 493.075 501.371C495.042 499.116 499.927 494.417 506.492 494.417C507.495 494.417 508.51 494.53 509.507 494.754C510.251 494.921 510.987 495.006 511.693 495.006C516.118 495.006 518.756 491.775 519.407 488.572C520.101 485.16 518.706 481.76 515.765 479.7C514.274 478.655 512.593 478.125 510.77 478.125Z" fill="#276169"/>
<path d="M493.328 501.803C493.328 501.803 494.46 488.767 502.184 486.138C509.905 483.511 509.437 490.276 503.167 493.039C496.896 495.8 494.825 504.21 494.825 504.21L493.328 501.803Z" fill="#67CFB0"/>
<path d="M474.143 495.799H507.627C508.741 495.799 509.645 497.205 509.645 498.939V507.248C509.645 508.982 508.741 510.387 507.627 510.387H474.143C473.028 510.387 472.125 508.982 472.125 507.248V498.939C472.125 497.205 473.029 495.799 474.143 495.799ZM476.167 510.39L479.484 540.092H502.286L505.603 510.39H476.167Z" fill="#F2889E"/>
<path d="M505.6 510.39L476.743 515.57L476.164 510.39H505.6ZM506.221 508.68H479.065C478.958 508.676 478.855 508.619 478.78 508.52C478.705 508.422 478.663 508.291 478.663 508.154C478.663 508.017 478.705 507.886 478.78 507.788C478.855 507.689 478.958 507.632 479.065 507.628H506.221C506.329 507.632 506.431 507.689 506.506 507.788C506.581 507.886 506.623 508.017 506.623 508.154C506.623 508.291 506.581 508.422 506.506 508.52C506.431 508.619 506.329 508.676 506.221 508.68ZM478.587 532.629C478.487 532.629 478.391 532.583 478.316 532.5C478.24 532.417 478.191 532.302 478.177 532.177L476.533 517.445C476.526 517.377 476.529 517.307 476.542 517.24C476.556 517.173 476.58 517.111 476.612 517.055C476.645 517 476.686 516.954 476.733 516.918C476.78 516.883 476.832 516.86 476.886 516.851C476.995 516.832 477.105 516.868 477.193 516.952C477.281 517.036 477.339 517.16 477.355 517.298L478.998 532.029C479.007 532.104 479.002 532.18 478.986 532.252C478.969 532.324 478.94 532.391 478.901 532.448C478.862 532.505 478.814 532.551 478.76 532.582C478.705 532.613 478.647 532.629 478.587 532.629Z" fill="#2A1D19"/>
<path d="M224.601 531.444H325.84C330.555 531.444 333.949 526.521 334.413 520.571L340.313 444.826C340.775 438.876 336.455 433.955 331.738 433.955H218.703C213.986 433.955 209.666 438.876 210.128 444.826L216.028 520.571C216.49 526.521 219.887 531.444 224.601 531.444Z" fill="white"/>
<path d="M331 540.092H219.432C217.556 540.092 216.023 538.146 216.023 535.767V531.444H334.409V535.767C334.409 538.146 332.876 540.092 331 540.092Z" fill="#353640"/>
<path d="M275.223 492.759C280.169 492.759 284.18 488.255 284.18 482.699C284.18 477.142 280.169 472.638 275.223 472.638C270.276 472.638 266.266 477.142 266.266 482.699C266.266 488.255 270.276 492.759 275.223 492.759Z" fill="#EFF3F7"/>
<path d="M526.354 540.615H70.6445C70.5366 540.611 70.4343 540.554 70.3593 540.456C70.2842 540.357 70.2422 540.226 70.2422 540.089C70.2422 539.952 70.2842 539.821 70.3593 539.723C70.4343 539.625 70.5366 539.567 70.6445 539.563H526.354C526.462 539.567 526.565 539.625 526.64 539.723C526.715 539.821 526.757 539.952 526.757 540.089C526.757 540.226 526.715 540.357 526.64 540.456C526.565 540.554 526.462 540.611 526.354 540.615Z" fill="#353640"/>
</svg>
