<svg width="120" height="92" viewBox="0 0 120 92" fill="none" xmlns="http://www.w3.org/2000/svg">
<path opacity="0.56" d="M90.3211 31.139L81.007 25.1526L85.7554 19.1663L100.913 28.9087C102.922 30.1999 102.922 32.1954 100.913 33.3692L82.1028 45.4592C80.0939 46.7504 76.9892 46.7504 75.1629 45.4592C73.154 44.168 73.154 42.1726 75.1629 40.9988L90.3211 31.139Z" fill="#FF4D49"/>
<path d="M75.1594 16.8187C77.1683 15.5276 80.273 15.5276 82.0993 16.8187L85.5692 19.049L44.8432 45.4592C42.8343 46.7504 39.7296 46.7504 37.9033 45.4592L34.4334 43.229L75.1594 16.8187ZM57.6271 25.0353L50.6873 29.4957L41.3732 23.5094L29.685 31.139L38.9991 37.1253L34.2507 43.1116L19.0926 33.3692C17.0837 32.078 17.0837 30.0826 19.0926 28.9088L37.7207 16.8187C39.7296 15.5276 42.8342 15.5276 44.6605 16.8187L57.6271 25.0353Z" fill="#FF4D49"/>
<path d="M20.9558 75.1496H17.1624L17.1863 72.3495H20.9558C21.8972 72.3495 22.6909 72.1381 23.3371 71.7152C23.9833 71.2844 24.47 70.6582 24.797 69.8365C25.1321 69.0148 25.2996 68.0216 25.2996 66.8568V66.0072C25.2996 65.1137 25.2039 64.3279 25.0124 63.6498C24.829 62.9717 24.5537 62.4013 24.1868 61.9386C23.8198 61.4759 23.369 61.1289 22.8345 60.8975C22.3 60.6582 21.6858 60.5385 20.9917 60.5385H17.0906V57.7264H20.9917C22.1564 57.7264 23.2215 57.9258 24.1868 58.3247C25.16 58.7156 26.0017 59.2781 26.7117 60.012C27.4217 60.7459 27.9682 61.6235 28.3511 62.6446C28.742 63.6578 28.9375 64.7866 28.9375 66.0312V66.8568C28.9375 68.0934 28.742 69.2222 28.3511 70.2434C27.9682 71.2645 27.4217 72.142 26.7117 72.876C26.0096 73.602 25.168 74.1644 24.1868 74.5633C23.2135 74.9542 22.1365 75.1496 20.9558 75.1496ZM19.1967 57.7264V75.1496H15.6068V57.7264H19.1967ZM37.405 75.389C36.3998 75.389 35.4983 75.2294 34.7005 74.9103C33.9028 74.5832 33.2247 74.1325 32.6662 73.5581C32.1158 72.9837 31.6929 72.3176 31.3978 71.5597C31.1026 70.7938 30.955 69.9801 30.955 69.1185V68.6398C30.955 67.6586 31.0946 66.7611 31.3738 65.9474C31.6531 65.1337 32.0519 64.4276 32.5705 63.8293C33.097 63.231 33.7352 62.7723 34.4851 62.4532C35.235 62.1261 36.0807 61.9625 37.022 61.9625C37.9395 61.9625 38.7532 62.1141 39.4632 62.4173C40.1732 62.7204 40.7675 63.1512 41.2462 63.7096C41.7328 64.2681 42.0998 64.9382 42.3471 65.72C42.5944 66.4939 42.7181 67.3554 42.7181 68.3048V69.7408H32.4269V67.4432H39.3316V67.1799C39.3316 66.7013 39.2438 66.2745 39.0683 65.8995C38.9008 65.5166 38.6455 65.2134 38.3024 64.9901C37.9594 64.7667 37.5206 64.655 36.9861 64.655C36.5314 64.655 36.1405 64.7547 35.8134 64.9542C35.4863 65.1536 35.2191 65.4328 35.0117 65.7918C34.8122 66.1508 34.6606 66.5736 34.5569 67.0603C34.4612 67.5389 34.4133 68.0655 34.4133 68.6398V69.1185C34.4133 69.6371 34.4851 70.1157 34.6287 70.5545C34.7803 70.9933 34.9917 71.3722 35.2629 71.6913C35.5422 72.0104 35.8772 72.2577 36.2681 72.4332C36.667 72.6087 37.1178 72.6965 37.6203 72.6965C38.2426 72.6965 38.821 72.5768 39.3555 72.3375C39.898 72.0902 40.3647 71.7192 40.7556 71.2246L42.4309 73.0435C42.1596 73.4344 41.7887 73.8094 41.318 74.1684C40.8553 74.5274 40.2969 74.8225 39.6427 75.0539C38.9885 75.2773 38.2426 75.389 37.405 75.389ZM49.0316 72.6367L51.9036 62.2019H55.5055L51.1377 75.1496H48.9598L49.0316 72.6367ZM47.0571 62.2019L49.9411 72.6486L50.0009 75.1496H47.811L43.4432 62.2019H47.0571ZM64.1644 68.939H59.7249V66.1388H64.1644C64.8505 66.1388 65.409 66.0272 65.8398 65.8038C66.2706 65.5724 66.5857 65.2533 66.7851 64.8465C66.9846 64.4396 67.0843 63.9809 67.0843 63.4703C67.0843 62.9518 66.9846 62.4691 66.7851 62.0224C66.5857 61.5756 66.2706 61.2166 65.8398 60.9454C65.409 60.6741 64.8505 60.5385 64.1644 60.5385H60.9694V75.1496H57.3794V57.7264H64.1644C65.5286 57.7264 66.6974 57.9737 67.6706 58.4683C68.6519 58.955 69.4018 59.6291 69.9203 60.4907C70.4389 61.3522 70.6982 62.3375 70.6982 63.4464C70.6982 64.5712 70.4389 65.5445 69.9203 66.3662C69.4018 67.1879 68.6519 67.8221 67.6706 68.2689C66.6974 68.7156 65.5286 68.939 64.1644 68.939ZM72.3567 68.8074V68.5561C72.3567 67.6067 72.4923 66.7332 72.7636 65.9354C73.0348 65.1297 73.4297 64.4316 73.9483 63.8413C74.4668 63.2509 75.105 62.7922 75.8629 62.4651C76.6208 62.1301 77.4904 61.9625 78.4716 61.9625C79.4529 61.9625 80.3264 62.1301 81.0923 62.4651C81.8581 62.7922 82.5003 63.2509 83.0189 63.8413C83.5454 64.4316 83.9443 65.1297 84.2155 65.9354C84.4868 66.7332 84.6224 67.6067 84.6224 68.5561V68.8074C84.6224 69.7487 84.4868 70.6223 84.2155 71.428C83.9443 72.2258 83.5454 72.9239 83.0189 73.5222C82.5003 74.1125 81.8621 74.5712 81.1042 74.8983C80.3464 75.2254 79.4768 75.389 78.4955 75.389C77.5143 75.389 76.6407 75.2254 75.8749 74.8983C75.117 74.5712 74.4748 74.1125 73.9483 73.5222C73.4297 72.9239 73.0348 72.2258 72.7636 71.428C72.4923 70.6223 72.3567 69.7487 72.3567 68.8074ZM75.8031 68.5561V68.8074C75.8031 69.3499 75.8509 69.8564 75.9467 70.3271C76.0424 70.7978 76.194 71.2126 76.4014 71.5716C76.6168 71.9227 76.896 72.1979 77.2391 72.3973C77.5821 72.5968 78.0009 72.6965 78.4955 72.6965C78.9742 72.6965 79.385 72.5968 79.7281 72.3973C80.0711 72.1979 80.3464 71.9227 80.5538 71.5716C80.7612 71.2126 80.9128 70.7978 81.0085 70.3271C81.1122 69.8564 81.1641 69.3499 81.1641 68.8074V68.5561C81.1641 68.0296 81.1122 67.5349 81.0085 67.0722C80.9128 66.6016 80.7572 66.1867 80.5418 65.8277C80.3344 65.4607 80.0592 65.1736 79.7161 64.9661C79.3731 64.7587 78.9582 64.655 78.4716 64.655C77.985 64.655 77.5701 64.7587 77.2271 64.9661C76.892 65.1736 76.6168 65.4607 76.4014 65.8277C76.194 66.1867 76.0424 66.6016 75.9467 67.0722C75.8509 67.5349 75.8031 68.0296 75.8031 68.5561ZM86.3049 68.8074V68.5561C86.3049 67.6067 86.4405 66.7332 86.7117 65.9354C86.983 65.1297 87.3779 64.4316 87.8964 63.8413C88.415 63.2509 89.0532 62.7922 89.8111 62.4651C90.5689 62.1301 91.4385 61.9625 92.4198 61.9625C93.401 61.9625 94.2746 62.1301 95.0404 62.4651C95.8063 62.7922 96.4485 63.2509 96.967 63.8413C97.4936 64.4316 97.8924 65.1297 98.1637 65.9354C98.4349 66.7332 98.5705 67.6067 98.5705 68.5561V68.8074C98.5705 69.7487 98.4349 70.6223 98.1637 71.428C97.8924 72.2258 97.4936 72.9239 96.967 73.5222C96.4485 74.1125 95.8103 74.5712 95.0524 74.8983C94.2945 75.2254 93.425 75.389 92.4437 75.389C91.4624 75.389 90.5889 75.2254 89.823 74.8983C89.0652 74.5712 88.423 74.1125 87.8964 73.5222C87.3779 72.9239 86.983 72.2258 86.7117 71.428C86.4405 70.6223 86.3049 69.7487 86.3049 68.8074ZM89.7512 68.5561V68.8074C89.7512 69.3499 89.7991 69.8564 89.8948 70.3271C89.9906 70.7978 90.1421 71.2126 90.3496 71.5716C90.565 71.9227 90.8442 72.1979 91.1872 72.3973C91.5303 72.5968 91.9491 72.6965 92.4437 72.6965C92.9224 72.6965 93.3332 72.5968 93.6762 72.3973C94.0193 72.1979 94.2945 71.9227 94.5019 71.5716C94.7094 71.2126 94.8609 70.7978 94.9567 70.3271C95.0604 69.8564 95.1122 69.3499 95.1122 68.8074V68.5561C95.1122 68.0296 95.0604 67.5349 94.9567 67.0722C94.8609 66.6016 94.7054 66.1867 94.49 65.8277C94.2826 65.4607 94.0073 65.1736 93.6643 64.9661C93.3212 64.7587 92.9064 64.655 92.4198 64.655C91.9331 64.655 91.5183 64.7587 91.1752 64.9661C90.8402 65.1736 90.565 65.4607 90.3496 65.8277C90.1421 66.1867 89.9906 66.6016 89.8948 67.0722C89.7991 67.5349 89.7512 68.0296 89.7512 68.5561ZM104.441 56.7691V75.1496H100.983V56.7691H104.441Z" fill="#EAEAFF" fill-opacity="0.87"/>
</svg>
