<svg width="240" height="63" viewBox="0 0 240 63" fill="none" xmlns="http://www.w3.org/2000/svg">
<g clip-path="url(#clip0_407_22490)">
<path opacity="0.56" d="M76.6976 31.5L66.9591 25.2409L71.9238 18.9818L87.7726 29.1682C89.8731 30.5182 89.8731 32.6045 87.7726 33.8318L68.1048 46.4727C66.0044 47.8227 62.7583 47.8227 60.8488 46.4727C58.7483 45.1227 58.7483 43.0364 60.8488 41.8091L76.6976 31.5Z" fill="#FF4D49"/>
<path d="M60.8491 16.5273C62.9495 15.1773 66.1957 15.1773 68.1052 16.5273L71.7332 18.8591L29.1515 46.4727C27.0511 47.8227 23.8049 47.8227 21.8954 46.4727L18.2674 44.1409L60.8491 16.5273ZM42.518 25.1182L35.2619 29.7818L25.5235 23.5227L13.3027 31.5L23.0411 37.7591L18.0765 44.0182L2.22768 33.8318C0.127233 32.4818 0.127233 30.3954 2.22768 29.1682L21.7045 16.5273C23.8049 15.1773 27.0511 15.1773 28.9606 16.5273L42.518 25.1182Z" fill="#FF4D49"/>
<path d="M120.366 42.5H115.413L115.445 38.8438H120.366C121.596 38.8438 122.632 38.5677 123.476 38.0156C124.32 37.4531 124.955 36.6354 125.382 35.5625C125.82 34.4896 126.038 33.1927 126.038 31.6719V30.5625C126.038 29.3958 125.913 28.3698 125.663 27.4844C125.424 26.599 125.064 25.8542 124.585 25.25C124.106 24.6458 123.517 24.1927 122.82 23.8906C122.122 23.5781 121.32 23.4219 120.413 23.4219H115.32V19.75H120.413C121.934 19.75 123.325 20.0104 124.585 20.5312C125.856 21.0417 126.955 21.776 127.882 22.7344C128.809 23.6927 129.523 24.8385 130.023 26.1719C130.533 27.4948 130.788 28.9688 130.788 30.5938V31.6719C130.788 33.2865 130.533 34.7604 130.023 36.0938C129.523 37.4271 128.809 38.5729 127.882 39.5312C126.965 40.4792 125.866 41.2135 124.585 41.7344C123.314 42.2448 121.908 42.5 120.366 42.5ZM118.07 19.75V42.5H113.382V19.75H118.07ZM141.845 42.8125C140.532 42.8125 139.355 42.6042 138.313 42.1875C137.272 41.7604 136.386 41.1719 135.657 40.4219C134.938 39.6719 134.386 38.8021 134.001 37.8125C133.615 36.8125 133.423 35.75 133.423 34.625V34C133.423 32.7188 133.605 31.5469 133.97 30.4844C134.334 29.4219 134.855 28.5 135.532 27.7188C136.22 26.9375 137.053 26.3385 138.032 25.9219C139.011 25.4948 140.115 25.2812 141.345 25.2812C142.542 25.2812 143.605 25.4792 144.532 25.875C145.459 26.2708 146.235 26.8333 146.86 27.5625C147.496 28.2917 147.975 29.1667 148.298 30.1875C148.621 31.1979 148.782 32.3229 148.782 33.5625V35.4375H135.345V32.4375H144.36V32.0938C144.36 31.4688 144.246 30.9115 144.016 30.4219C143.798 29.9219 143.464 29.526 143.016 29.2344C142.568 28.9427 141.996 28.7969 141.298 28.7969C140.704 28.7969 140.193 28.9271 139.766 29.1875C139.339 29.4479 138.99 29.8125 138.72 30.2812C138.459 30.75 138.261 31.3021 138.126 31.9375C138.001 32.5625 137.938 33.25 137.938 34V34.625C137.938 35.3021 138.032 35.9271 138.22 36.5C138.417 37.0729 138.693 37.5677 139.048 37.9844C139.412 38.401 139.85 38.724 140.36 38.9531C140.881 39.1823 141.47 39.2969 142.126 39.2969C142.938 39.2969 143.693 39.1406 144.391 38.8281C145.1 38.5052 145.709 38.0208 146.22 37.375L148.407 39.75C148.053 40.2604 147.568 40.75 146.954 41.2188C146.35 41.6875 145.621 42.0729 144.766 42.375C143.912 42.6667 142.938 42.8125 141.845 42.8125ZM157.026 39.2188L160.776 25.5938H165.479L159.776 42.5H156.932L157.026 39.2188ZM154.448 25.5938L158.213 39.2344L158.291 42.5H155.432L149.729 25.5938H154.448ZM176.785 34.3906H170.988V30.7344H176.785C177.681 30.7344 178.41 30.5885 178.973 30.2969C179.535 29.9948 179.947 29.5781 180.207 29.0469C180.467 28.5156 180.598 27.9167 180.598 27.25C180.598 26.5729 180.467 25.9427 180.207 25.3594C179.947 24.776 179.535 24.3073 178.973 23.9531C178.41 23.599 177.681 23.4219 176.785 23.4219H172.613V42.5H167.926V19.75H176.785C178.566 19.75 180.092 20.0729 181.363 20.7188C182.645 21.3542 183.624 22.2344 184.301 23.3594C184.978 24.4844 185.316 25.7708 185.316 27.2188C185.316 28.6875 184.978 29.9583 184.301 31.0312C183.624 32.1042 182.645 32.9323 181.363 33.5156C180.092 34.099 178.566 34.3906 176.785 34.3906ZM187.482 34.2188V33.8906C187.482 32.651 187.659 31.5104 188.013 30.4688C188.367 29.4167 188.883 28.5052 189.56 27.7344C190.237 26.9635 191.071 26.3646 192.06 25.9375C193.05 25.5 194.185 25.2812 195.466 25.2812C196.748 25.2812 197.888 25.5 198.888 25.9375C199.888 26.3646 200.727 26.9635 201.404 27.7344C202.091 28.5052 202.612 29.4167 202.966 30.4688C203.321 31.5104 203.498 32.651 203.498 33.8906V34.2188C203.498 35.4479 203.321 36.5885 202.966 37.6406C202.612 38.6823 202.091 39.5938 201.404 40.375C200.727 41.1458 199.893 41.7448 198.904 42.1719C197.914 42.599 196.779 42.8125 195.498 42.8125C194.216 42.8125 193.076 42.599 192.076 42.1719C191.086 41.7448 190.248 41.1458 189.56 40.375C188.883 39.5938 188.367 38.6823 188.013 37.6406C187.659 36.5885 187.482 35.4479 187.482 34.2188ZM191.982 33.8906V34.2188C191.982 34.9271 192.045 35.5885 192.17 36.2031C192.295 36.8177 192.492 37.3594 192.763 37.8281C193.045 38.2865 193.409 38.6458 193.857 38.9062C194.305 39.1667 194.852 39.2969 195.498 39.2969C196.123 39.2969 196.659 39.1667 197.107 38.9062C197.555 38.6458 197.914 38.2865 198.185 37.8281C198.456 37.3594 198.654 36.8177 198.779 36.2031C198.914 35.5885 198.982 34.9271 198.982 34.2188V33.8906C198.982 33.2031 198.914 32.5573 198.779 31.9531C198.654 31.3385 198.451 30.7969 198.17 30.3281C197.899 29.849 197.539 29.474 197.091 29.2031C196.643 28.9323 196.102 28.7969 195.466 28.7969C194.831 28.7969 194.289 28.9323 193.841 29.2031C193.404 29.474 193.045 29.849 192.763 30.3281C192.492 30.7969 192.295 31.3385 192.17 31.9531C192.045 32.5573 191.982 33.2031 191.982 33.8906ZM205.695 34.2188V33.8906C205.695 32.651 205.872 31.5104 206.226 30.4688C206.58 29.4167 207.096 28.5052 207.773 27.7344C208.45 26.9635 209.283 26.3646 210.273 25.9375C211.262 25.5 212.398 25.2812 213.679 25.2812C214.96 25.2812 216.101 25.5 217.101 25.9375C218.101 26.3646 218.939 26.9635 219.616 27.7344C220.304 28.5052 220.825 29.4167 221.179 30.4688C221.533 31.5104 221.71 32.651 221.71 33.8906V34.2188C221.71 35.4479 221.533 36.5885 221.179 37.6406C220.825 38.6823 220.304 39.5938 219.616 40.375C218.939 41.1458 218.106 41.7448 217.116 42.1719C216.127 42.599 214.991 42.8125 213.71 42.8125C212.429 42.8125 211.288 42.599 210.288 42.1719C209.299 41.7448 208.46 41.1458 207.773 40.375C207.096 39.5938 206.58 38.6823 206.226 37.6406C205.872 36.5885 205.695 35.4479 205.695 34.2188ZM210.195 33.8906V34.2188C210.195 34.9271 210.257 35.5885 210.382 36.2031C210.507 36.8177 210.705 37.3594 210.976 37.8281C211.257 38.2865 211.622 38.6458 212.07 38.9062C212.517 39.1667 213.064 39.2969 213.71 39.2969C214.335 39.2969 214.872 39.1667 215.32 38.9062C215.767 38.6458 216.127 38.2865 216.398 37.8281C216.668 37.3594 216.866 36.8177 216.991 36.2031C217.127 35.5885 217.195 34.9271 217.195 34.2188V33.8906C217.195 33.2031 217.127 32.5573 216.991 31.9531C216.866 31.3385 216.663 30.7969 216.382 30.3281C216.111 29.849 215.752 29.474 215.304 29.2031C214.856 28.9323 214.314 28.7969 213.679 28.7969C213.043 28.7969 212.502 28.9323 212.054 29.2031C211.616 29.474 211.257 29.849 210.976 30.3281C210.705 30.7969 210.507 31.3385 210.382 31.9531C210.257 32.5573 210.195 33.2031 210.195 33.8906ZM229.376 18.5V42.5H224.86V18.5H229.376Z" fill="#EAEAFF" fill-opacity="0.87"/>
</g>
<defs>
<clipPath id="clip0_407_22490">
<rect width="238.696" height="63" fill="white" transform="translate(0.652344)"/>
</clipPath>
</defs>
</svg>
